<svg width="450" height="330" viewBox="0 0 450 330" fill="none" xmlns="http://www.w3.org/2000/svg">
<path d="M251.178 323.845C340.605 323.845 413.1 251.35 413.1 161.922C413.1 72.4951 340.605 0 251.178 0C161.75 0 89.2552 72.4951 89.2552 161.922C89.2552 251.35 161.75 323.845 251.178 323.845Z" fill="#F2F2F2"/>
<path d="M300.667 101.148C323.922 101.148 342.775 82.2951 342.775 59.0392C342.775 35.7833 323.922 16.9307 300.667 16.9307C277.411 16.9307 258.558 35.7833 258.558 59.0392C258.558 82.2951 277.411 101.148 300.667 101.148Z" fill="#FF6584"/>
<path d="M124.139 31.4656L125.29 55.4616C130.061 61.8252 135.209 69.1073 140.289 77.0438L141.014 40.4355L141.414 40.6912C135.538 36.4935 129.565 33.2818 123.739 31.2432L124.139 31.4656Z" fill="#D72D35"/>
<path d="M124.451 54.3468L123.337 31.1025C116.794 28.8712 110.446 28.131 104.643 29.1658C104.341 29.2197 104.044 29.2816 103.748 29.3445C105.223 30.9263 113.815 40.2681 124.451 54.3468Z" fill="#D72D35"/>
<path d="M177.279 82.975L177.665 83.3435C176.08 80.3612 174.399 77.4616 172.623 74.6448L161.803 117.219L161.62 117.057C162.402 118.925 163.146 120.78 163.852 122.622L177.279 82.975Z" fill="#D72D35"/>
<path d="M160.796 58.7707L161.195 59.0896C155.474 52.3117 148.971 46.2352 141.821 40.9871L141.082 78.2929C145.809 85.7533 150.042 93.1015 153.779 100.338L160.796 58.7707Z" fill="#D72D35"/>
<path d="M82.3078 70.4177C82.9157 76.7057 84.1573 82.9161 86.0137 88.9545L150.536 95.6096C147.168 89.3982 143.69 83.5707 140.315 78.2595L82.4718 70.925L82.3078 70.4177Z" fill="#D72D35"/>
<path d="M88.3611 95.918L88.1874 95.4117L153.49 101.216C152.701 99.673 151.903 98.1504 151.097 96.6482L86.3363 89.9685L86.1661 89.4614C86.8188 91.5898 87.5505 93.742 88.3611 95.918Z" fill="#D72D35"/>
<path d="M171.888 73.757L172.28 74.1032C169.043 69.0112 165.465 64.1435 161.572 59.5332L154.46 101.662C156.925 106.502 159.158 111.273 161.158 115.976L171.888 73.757Z" fill="#D72D35"/>
<path d="M170.507 144.132C173.102 155.363 174.085 165.981 173.436 175.871C177.088 168.09 190.976 135.856 185.784 105.815L170.507 144.132Z" fill="#D72D35"/>
<path d="M100.341 118.623C103.796 123.277 107.559 127.695 111.605 131.846L111.448 131.284L169.536 143.234C168.025 136.963 166.139 130.788 163.888 124.742L100.341 118.623Z" fill="#D72D35"/>
<path d="M123.95 54.739C112.438 39.5097 103.355 29.8842 103.224 29.7464L103.374 29.4255C94.6381 31.4088 88.4701 37.3524 85.0764 45.9553L123.95 54.739Z" fill="#D72D35"/>
<path d="M164.389 124.051C164.604 124.624 164.822 125.198 165.029 125.769C167.024 131.234 168.72 136.804 170.109 142.453L185.242 104.5L185.612 104.87C184.654 99.5891 183.03 94.4505 180.78 89.5773C179.888 87.6665 178.953 85.7845 177.977 83.9314L164.389 124.051Z" fill="#D72D35"/>
<path d="M139.639 77.2013C134.611 69.3584 129.522 62.1638 124.805 55.8751L85.04 46.8896L84.9052 46.3877C82.4227 52.9252 81.515 60.9564 82.2669 69.9265L139.639 77.2013Z" fill="#D72D35"/>
<path d="M169.771 144.231L112.108 132.368C136.362 157.266 170.296 176.361 172.462 177.568C173.472 166.598 172.326 155.33 169.771 144.231Z" fill="#D72D35"/>
<path d="M163.48 123.72L163.493 123.682C160.72 116.373 157.556 109.218 154.014 102.248L88.5507 96.4294C89.6621 99.3726 90.9182 102.347 92.319 105.353C94.3593 109.636 96.7859 113.724 99.5688 117.566L163.48 123.72Z" fill="#D72D35"/>
<path d="M246.752 112.291L232.333 131.506C231.949 139.451 231.269 148.342 230.119 157.695L254.027 129.962L254.173 130.415C252.324 123.434 249.772 117.15 246.585 111.864L246.752 112.291Z" fill="#D72D35"/>
<path d="M232.398 130.113L246.365 111.499C242.749 105.608 238.332 100.989 233.203 98.0847C232.936 97.9336 232.668 97.7921 232.4 97.6516C232.527 99.8103 233.186 112.485 232.398 130.113Z" fill="#D72D35"/>
<path d="M254.826 185.856L254.889 186.387C255.57 183.078 256.125 179.773 256.553 176.471L221.066 202.36L221.027 202.119C220.439 204.056 219.829 205.959 219.197 207.828L254.826 185.856Z" fill="#D72D35"/>
<path d="M257.569 156.701L257.673 157.201C257.59 148.332 256.457 139.504 254.297 130.902L229.934 159.163C228.816 167.924 227.389 176.283 225.652 184.24L257.569 156.701Z" fill="#D72D35"/>
<path d="M189.689 115.611C186.147 120.841 183.142 126.417 180.721 132.251L226.17 178.53C227.538 171.598 228.577 164.892 229.364 158.648L189.492 116.106L189.689 115.611Z" fill="#D72D35"/>
<path d="M178.087 139.112L178.276 138.611L224.869 184.732C225.246 183.041 225.603 181.359 225.94 179.688L180.322 133.238L180.515 132.739C179.66 134.794 178.851 136.919 178.087 139.112Z" fill="#D72D35"/>
<path d="M256.553 175.318L256.635 175.835C257.389 169.848 257.738 163.817 257.68 157.783L225.332 185.695C224.144 190.994 222.82 196.093 221.361 200.991L256.553 175.318Z" fill="#D72D35"/>
<path d="M210.603 228.639C205.439 238.944 199.424 247.75 192.616 254.953C200.391 251.289 231.647 235.321 246.809 208.872L210.603 228.639Z" fill="#D72D35"/>
<path d="M172.832 164.24C172.525 170.028 172.606 175.831 173.074 181.609L173.312 181.075L210.429 227.328C213.265 221.535 215.75 215.576 217.873 209.484L172.832 164.24Z" fill="#D72D35"/>
<path d="M231.762 130.095C232.609 111.023 231.753 97.8162 231.74 97.6268L232.06 97.4751C224.067 93.4308 215.525 94.0745 207.424 98.5358L231.762 130.095Z" fill="#D72D35"/>
<path d="M218.7 209.271C218.499 209.849 218.301 210.431 218.097 211.002C216.148 216.484 213.901 221.855 211.368 227.093L247.23 207.513L247.279 208.034C249.909 203.356 251.936 198.363 253.312 193.174C253.843 191.133 254.324 189.088 254.754 187.038L218.7 209.271Z" fill="#D72D35"/>
<path d="M229.519 157.402C230.649 148.155 231.318 139.368 231.696 131.516L206.8 99.2323L207.017 98.7598C200.935 102.212 195.113 107.818 189.971 115.206L229.519 157.402Z" fill="#D72D35"/>
<path d="M209.974 228.246L173.129 182.331C175.929 216.977 189.885 253.327 190.783 255.638C198.558 247.834 204.862 238.425 209.974 228.246Z" fill="#D72D35"/>
<path d="M218.21 208.437L218.244 208.416C220.771 201.017 222.898 193.489 224.615 185.862L177.907 139.627C176.886 142.602 175.956 145.695 175.118 148.903C173.957 153.503 173.219 158.199 172.912 162.933L218.21 208.437Z" fill="#D72D35"/>
<path d="M102.987 137.946L111.499 160.411C118.004 164.988 125.15 170.323 132.434 176.3L121.808 141.26L122.268 141.38C115.382 139.204 108.708 137.996 102.538 137.858L102.987 137.946Z" fill="#D72D35"/>
<path d="M110.357 159.61L102.112 137.849C95.1998 137.749 88.9337 139.007 83.735 141.785C83.4646 141.929 83.2015 142.08 82.9393 142.231C84.8305 143.28 95.8893 149.508 110.357 159.61Z" fill="#D72D35"/>
<path d="M169.447 170.507L169.928 170.738C167.498 168.392 165.003 166.154 162.443 164.024L165.313 207.858L165.089 207.761C166.41 209.295 167.691 210.829 168.931 212.363L169.447 170.507Z" fill="#D72D35"/>
<path d="M146.289 152.583L146.767 152.763C139.231 148.085 131.168 144.317 122.747 141.535L133.574 177.243C140.376 182.877 146.673 188.557 152.464 194.284L146.289 152.583Z" fill="#D72D35"/>
<path d="M75.2444 187.92C77.7661 193.712 80.8665 199.235 84.4985 204.404L147.918 190.789C142.795 185.923 137.687 181.456 132.835 177.448L75.5572 188.352L75.2444 187.92Z" fill="#D72D35"/>
<path d="M88.8833 210.301L88.5615 209.873L152.46 195.208C151.233 193.985 150.004 192.783 148.772 191.604L85.1187 205.268L84.8 204.839C86.0787 206.661 87.4397 208.482 88.8833 210.301Z" fill="#D72D35"/>
<path d="M161.47 163.407L161.95 163.615C157.297 159.773 152.39 156.25 147.263 153.068L153.521 195.333C157.361 199.173 160.959 203.021 164.315 206.876L161.47 163.407Z" fill="#D72D35"/>
<path d="M181.909 230.763C187.849 240.641 192.066 250.436 194.506 260.042C195.573 251.513 198.818 216.565 184.595 189.6L181.909 230.763Z" fill="#D72D35"/>
<path d="M107.294 228.191C112.019 231.549 116.963 234.588 122.095 237.285L121.771 236.798L180.708 230.208C177.333 224.712 173.631 219.422 169.622 214.368L107.294 228.191Z" fill="#D72D35"/>
<path d="M110.001 160.138C94.3456 149.212 82.7319 142.866 82.565 142.775L82.6082 142.424C74.9132 147.01 70.8845 154.569 70.316 163.8L110.001 160.138Z" fill="#D72D35"/>
<path d="M169.884 213.556C170.265 214.035 170.65 214.514 171.023 214.992C174.61 219.573 177.945 224.346 181.012 229.289L183.673 188.517L184.139 188.755C181.595 184.028 178.463 179.643 174.817 175.704C173.377 174.163 171.907 172.662 170.406 171.201L169.884 213.556Z" fill="#D72D35"/>
<path d="M131.865 176.651C124.659 170.746 117.595 165.477 111.166 160.954L70.5703 164.7L70.287 164.264C69.9468 171.249 71.566 179.168 75.0537 187.466L131.865 176.651Z" fill="#D72D35"/>
<path d="M181.24 231.084L122.734 237.625C153.497 253.807 191.67 261.478 194.103 261.957C191.674 251.212 187.101 240.85 181.24 231.084Z" fill="#D72D35"/>
<path d="M168.917 213.523L168.918 213.482C164.021 207.388 158.801 201.561 153.278 196.028L89.2217 210.729C91.1884 213.184 93.3025 215.625 95.5639 218.051C98.828 221.493 102.399 224.631 106.234 227.424L168.917 213.523Z" fill="#D72D35"/>
<path d="M450 275.225C450 294.645 350.101 329.055 226.868 329.055C103.636 329.055 3.7368 294.645 3.7368 275.225C3.7368 255.805 103.636 258.729 226.868 258.729C350.101 258.729 450 255.805 450 275.225Z" fill="#3F3D56"/>
<path opacity="0.1" d="M450 275.225C450 294.645 350.101 329.055 226.868 329.055C103.636 329.055 3.7368 294.645 3.7368 275.225C3.7368 255.805 103.636 258.729 226.868 258.729C350.101 258.729 450 255.805 450 275.225Z" fill="black"/>
<path d="M226.868 310.388C350.101 310.388 450 294.645 450 275.225C450 255.805 350.101 240.062 226.868 240.062C103.636 240.062 3.7368 255.805 3.7368 275.225C3.7368 294.645 103.636 310.388 226.868 310.388Z" fill="#3F3D56"/>
<path opacity="0.1" d="M265.553 238.472C265.553 259.63 236.062 253.086 199.954 253.086C163.845 253.086 134.792 259.63 134.792 238.472C134.792 217.315 164.279 212.714 200.388 212.714C236.496 212.714 265.553 217.315 265.553 238.472Z" fill="black"/>
<path d="M265.553 233.263C265.553 254.421 236.062 247.876 199.954 247.876C163.845 247.876 134.792 254.421 134.792 233.263C134.792 212.106 164.279 207.504 200.388 207.504C236.496 207.504 265.553 212.106 265.553 233.263Z" fill="#3F3D56"/>
<path d="M149.393 175.047C150.187 174.481 151.064 174.042 151.992 173.743C157.876 171.554 164.042 170.212 170.304 169.757C175.748 169.371 181.65 169.83 185.902 173.252C186.564 173.737 187.105 174.368 187.485 175.095C188.02 176.25 187.858 177.592 187.684 178.852C187.646 179.341 187.522 179.82 187.32 180.267C186.748 181.356 185.339 181.738 184.115 181.607C182.891 181.477 181.743 180.959 180.536 180.719C179.789 180.589 179.033 180.512 178.275 180.489L170.704 180.079C165.997 179.824 161.227 179.573 156.609 180.523C155.187 180.779 153.814 181.252 152.537 181.927C151.482 182.519 150.772 183.369 149.793 182.275C148.073 180.353 147.122 176.822 149.393 175.047Z" fill="#2F2E41"/>
<path d="M161.125 178.395C161.125 178.395 171.308 173.83 175.17 179.097C179.033 184.364 173.063 182.257 173.063 182.257L166.392 184.364L159.018 182.959L161.125 178.395Z" fill="#F2F2F2"/>
<path d="M161.651 175.059C161.651 175.059 163.056 181.73 162.003 183.486C160.949 185.242 167.972 187.7 167.972 187.7L174.643 184.891C174.643 184.891 172.888 174.006 174.643 171.899L161.651 175.059Z" fill="#FFB9B9"/>
<path opacity="0.1" d="M161.651 175.059C161.651 175.059 163.056 181.73 162.003 183.486C160.949 185.242 167.972 187.7 167.972 187.7L174.643 184.891C174.643 184.891 172.888 174.006 174.643 171.899L161.651 175.059Z" fill="black"/>
<path d="M155.072 255.28C156.016 257.238 156.792 259.272 157.392 261.361C157.402 261.43 157.426 261.496 157.463 261.555C157.501 261.614 157.55 261.664 157.608 261.703C157.666 261.741 157.731 261.767 157.8 261.779C157.869 261.79 157.939 261.787 158.007 261.77L164.252 261.763C165.023 261.762 166.057 261.514 166.049 260.743C166.044 260.202 165.49 259.864 165.078 259.513C163.935 258.537 163.637 256.929 163.164 255.502C162.243 252.754 160.47 250.372 158.101 248.702C157.781 248.452 157.412 248.27 157.019 248.167C156.623 248.11 156.219 248.132 155.832 248.232C154.736 248.453 150.641 249.21 151.415 250.805C151.748 251.491 152.982 252.206 153.499 252.848C154.103 253.604 154.629 254.419 155.072 255.28Z" fill="#575A89"/>
<path d="M176.791 248.036C176.57 248.499 176.325 248.949 176.056 249.386C175.151 250.878 174.084 252.27 173.241 253.799C172.673 254.732 172.322 255.782 172.215 256.869C172.167 257.413 172.25 257.961 172.458 258.466C172.665 258.971 172.991 259.418 173.407 259.771C174.314 260.459 175.557 260.491 176.683 260.331C177.81 260.171 178.931 259.848 180.066 259.933C179.683 257.767 181.509 255.862 181.966 253.711C182.094 253.106 182.113 252.48 182.285 251.887C182.47 251.344 182.707 250.821 182.992 250.324C183.901 248.553 184.544 246.657 184.899 244.698C184.942 244.461 179.348 244.422 178.823 244.535C177.185 244.889 177.424 246.678 176.791 248.036Z" fill="#575A89"/>
<path d="M133.668 214.017C132.07 216.516 132.438 219.828 133.56 222.574C134.682 225.32 136.467 227.748 137.689 230.451C138.468 232.174 139.015 234.001 139.892 235.676C140.978 237.75 142.564 239.579 143.293 241.804C143.758 243.223 143.865 244.777 144.617 246.066C145.072 246.755 145.592 247.399 146.168 247.99C147.789 249.848 149.007 252.022 149.743 254.375C150.431 252.326 152.491 250.982 154.606 250.539C156.722 250.096 158.915 250.397 161.055 250.699C159.861 248.849 158.655 246.976 157.944 244.893C157.255 242.878 157.052 240.734 156.588 238.656C155.638 234.394 153.606 230.463 151.595 226.587L161.932 225.767C163.619 225.597 165.315 225.535 167.01 225.579C169.678 225.704 172.291 226.358 174.945 226.661C177.599 226.963 180.406 226.884 182.771 225.643C178.249 232.131 175.894 239.883 176.042 247.791C177.053 247.007 178.226 246.46 179.476 246.189C180.725 245.918 182.02 245.929 183.264 246.223C184.508 246.517 185.671 247.085 186.668 247.886C187.664 248.688 188.469 249.701 189.023 250.854C193.074 245.318 192.592 237.612 195.802 231.55C196.462 230.304 197.271 229.143 197.983 227.926C199.329 225.481 200.481 222.934 201.43 220.309C202.327 218.013 203.232 215.458 202.371 213.147C202.013 212.271 201.492 211.47 200.836 210.788C198.984 208.746 196.407 207.235 193.651 207.173C189.42 207.076 185.925 210.212 182.214 212.245C177.784 214.6 172.773 215.639 167.772 215.24C162.675 214.879 157.806 213.211 152.95 211.741C150.52 210.972 148.051 210.335 145.552 209.833C143.47 209.442 141.486 209.875 139.434 210.408C137.199 210.988 134.954 212.004 133.668 214.017Z" fill="#2F2E41"/>
<path d="M177.804 168.387C177.801 171.18 176.691 173.858 174.716 175.833C172.741 177.808 170.063 178.919 167.27 178.921C166.642 178.922 166.015 178.866 165.398 178.753C163.427 178.397 161.598 177.486 160.126 176.127C158.653 174.769 157.599 173.018 157.087 171.082C156.574 169.145 156.625 167.102 157.232 165.193C157.84 163.284 158.979 161.588 160.516 160.304C162.053 159.019 163.925 158.2 165.912 157.941C167.898 157.683 169.917 157.996 171.732 158.845C173.547 159.693 175.082 161.042 176.157 162.732C177.232 164.422 177.804 166.384 177.804 168.387Z" fill="#FFB9B9"/>
<path d="M161.125 178.395C161.125 178.395 163.056 179.273 163.758 179.975C164.46 180.677 166.567 184.54 170.079 182.082C173.59 179.624 173.941 178.219 174.995 178.219C176.048 178.219 177.452 180.326 177.452 180.326L187.109 209.295C184.506 212.232 181.49 214.775 178.155 216.844C172.537 220.355 165.865 222.111 162.705 220.707C159.545 219.302 153.575 218.249 152.522 215.439C151.469 212.63 149.713 204.203 149.713 204.203L154.629 182.784L161.125 178.395Z" fill="#F2F2F2"/>
<path d="M159.769 207.693C160.534 206.039 160.646 204.167 160.711 202.346C160.814 200.543 160.766 198.734 160.568 196.938C160.256 194.589 159.492 192.327 159.009 190.007C158.585 187.973 158.379 185.899 158.394 183.821C158.401 182.873 158.47 181.875 158.987 181.08C159.347 180.525 159.911 180.095 160.136 179.473C160.578 178.254 159.487 176.977 158.291 176.475C156.834 175.929 155.241 175.865 153.745 176.292C152.262 176.721 150.829 177.307 149.47 178.041C148.442 178.479 147.498 179.09 146.676 179.847C145.586 180.975 145.107 182.546 144.72 184.066C144.41 185.283 144.135 186.551 144.371 187.784C144.753 189.787 146.386 191.293 147.256 193.136C148.266 195.277 148.198 197.772 147.796 200.105C147.394 202.437 146.681 204.718 146.461 207.075C146.241 209.432 146.579 211.966 148.055 213.816C148.657 214.57 150.29 216.357 151.391 216.155C152.257 215.996 153.511 214.091 154.209 213.487C156.223 211.743 158.612 210.191 159.769 207.693Z" fill="#2F2E41"/>
<path d="M178.166 177.249C178.197 179.208 177.333 181.069 176.318 182.744C175.303 184.419 174.11 186.003 173.362 187.814C172.433 190.079 172.243 192.581 172.82 194.961C173.034 195.772 173.293 196.571 173.595 197.353L175.518 202.63C175.777 203.46 176.153 204.249 176.634 204.973C177.069 205.527 177.579 206.018 178.15 206.431C179.612 207.611 181.293 208.488 183.097 209.012C184.914 209.531 186.852 209.421 188.598 208.698C188.784 201.544 189.933 194.448 192.015 187.601C192.4 186.337 192.82 185.007 192.523 183.719C192.191 182.277 191.033 181.195 189.932 180.206C186.564 177.182 182.861 174.006 178.354 173.598C175.746 173.362 178.144 175.834 178.166 177.249Z" fill="#2F2E41"/>
<path d="M155.123 218.074C155.39 218.597 155.556 219.166 155.82 219.69C156.21 220.393 156.692 221.041 157.253 221.617C159.601 224.22 162.471 226.814 165.973 226.971C166.321 227.003 166.671 226.959 167 226.841C167.297 226.69 167.551 226.468 167.742 226.195C167.932 225.923 168.053 225.608 168.094 225.277C168.342 223.918 167.742 222.561 167.141 221.316C165.839 218.618 164.373 215.852 161.934 214.112C160.716 213.277 159.325 212.729 157.865 212.51C156.405 212.29 154.915 212.404 153.505 212.844C152.235 213.235 150.128 213.918 151.81 215.077C153.086 215.957 154.383 216.626 155.123 218.074Z" fill="#FFB9B9"/>
<path d="M170.262 183.726C169.896 182.738 169.336 181.835 168.614 181.069C167.886 180.453 167.024 180.016 166.097 179.793C164.895 179.45 163.653 179.272 162.404 179.264C160.917 179.255 159.193 179.654 158.561 181C158.06 182.069 158.448 183.335 158.953 184.403C159.169 184.956 159.528 185.441 159.994 185.809C160.635 186.242 161.465 186.229 162.225 186.374C163.404 186.673 164.52 187.179 165.522 187.868L168.127 189.442L172.601 192.146C172.483 192.075 172.525 189.007 172.387 188.504C171.945 186.885 170.948 185.259 170.262 183.726Z" fill="#FFB9B9"/>
<path d="M157.229 260.566C156.183 261.988 156.392 264.022 155.465 265.525C154.661 266.828 153.147 267.511 152.141 268.666C151.82 269.049 151.534 269.461 151.287 269.895C150.354 271.457 149.596 273.46 150.514 275.03C151.253 276.294 152.806 276.787 154.231 277.124C156.031 277.549 157.902 277.89 159.723 277.565C161.544 277.24 163.324 276.124 163.973 274.392C164.101 273.957 164.253 273.528 164.428 273.11C165.415 271.167 168.511 271.145 169.521 269.214C170.228 267.863 169.578 266.229 168.929 264.849L166.945 260.634C166.286 259.235 163.617 260.039 162.226 259.704C160.411 259.267 158.535 258.785 157.229 260.566Z" fill="#2F2E41"/>
<path d="M172.575 256.945C171.763 257.584 171.142 258.435 170.78 259.404C169.798 261.669 169.461 264.153 169.134 266.6C168.947 267.573 168.928 268.571 169.077 269.551C169.5 271.55 171.311 273.021 173.26 273.633C175.21 274.244 177.3 274.149 179.341 274.049C179.999 274.066 180.652 273.934 181.252 273.661C182.277 273.096 182.678 271.767 182.502 270.609C182.326 269.451 181.694 268.421 181.075 267.427C180.456 266.433 179.823 265.404 179.645 264.246C179.347 262.299 180.189 259.441 178.993 257.68C177.794 255.915 174.175 255.824 172.575 256.945Z" fill="#2F2E41"/>
<path d="M177.539 162.897C177.351 162.267 176.938 161.728 176.379 161.384C176.408 160.709 176.325 160.034 176.134 159.386C175.496 157.5 173.985 157.608 172.559 156.774C171.94 156.413 171.979 156.093 171.657 155.499C171.235 154.72 170.602 154.075 169.832 153.637C168.917 153.054 167.952 152.454 166.869 152.38C164.595 152.225 162.851 154.364 160.678 155.051C159.72 155.354 158.69 155.366 157.727 155.652C156.764 155.938 155.803 156.621 155.659 157.616C155.593 158.075 155.71 158.546 155.643 159.005C155.509 159.917 154.709 160.556 154.173 161.306C152.988 162.965 153.124 165.309 154.071 167.115C154.271 167.488 154.499 167.846 154.754 168.184C154.833 169.037 155.078 169.867 155.476 170.626C156.423 172.431 158.054 173.78 159.757 174.901C159.617 174.302 159.533 173.692 159.504 173.078C159.48 172.874 159.507 172.666 159.582 172.474C159.771 172.078 160.272 171.972 160.655 171.755C161.446 171.305 161.756 170.31 161.779 169.4C161.802 168.49 161.609 167.578 161.705 166.673C161.708 166.465 161.756 166.26 161.844 166.071C161.931 165.882 162.058 165.714 162.215 165.577C162.507 165.41 162.841 165.331 163.176 165.348C164.798 165.282 166.492 165.252 167.923 164.485C168.384 164.179 168.88 163.928 169.4 163.738C170.616 163.421 171.858 164.273 172.559 165.315C173.259 166.358 173.609 167.599 174.255 168.676C174.901 169.753 176.018 170.714 177.268 170.586C177.338 170.587 177.408 170.572 177.472 170.543C177.536 170.515 177.594 170.473 177.641 170.421C177.695 170.324 177.719 170.213 177.71 170.103L177.78 165.325C177.838 164.508 177.756 163.687 177.539 162.897Z" fill="#2F2E41"/>
<path d="M144.202 187.886C143.197 189.369 142.038 190.795 141.485 192.499C141.16 193.5 141.06 194.559 140.825 195.585C140.042 199.004 137.779 202.04 137.552 205.539C137.472 206.317 137.587 207.102 137.884 207.825C138.533 209.236 140.086 209.98 141.568 210.448C143.049 210.916 144.64 211.253 145.823 212.261C146.418 212.831 146.958 213.457 147.435 214.13C149.364 216.529 151.959 218.305 154.895 219.234C154.663 217.636 154.554 215.71 155.831 214.723C156.522 214.188 157.446 214.093 158.317 214.018L162.431 213.662C159.688 211.001 156.664 208.645 153.412 206.636C152.275 205.934 151.037 205.192 150.517 203.96C150.249 203.166 150.137 202.328 150.189 201.491C150.161 198.431 149.902 195.378 149.414 192.357C149.075 190.26 148.627 188.181 148.114 186.119C147.97 185.54 147.119 182.944 146.071 183.551C145.825 183.695 145.594 185.342 145.45 185.683C145.107 186.457 144.689 187.194 144.202 187.886Z" fill="#2F2E41"/>
<path d="M191.587 182.283L193.267 185.777C194.077 187.214 194.445 188.857 194.327 190.502L194.426 200.983C194.504 202.384 194.388 203.788 194.082 205.157C193.977 205.608 193.78 206.032 193.502 206.403C193.217 206.723 192.882 206.993 192.509 207.204C189.329 209.191 185.206 210.32 181.846 208.655C181.077 208.245 180.345 207.767 179.66 207.228C178.321 206.236 176.963 205.225 175.961 203.894C174.913 202.501 174.312 200.832 173.607 199.238C172.341 196.377 170.705 193.695 168.742 191.259C168.417 190.937 168.205 190.518 168.14 190.065C168.119 189.146 169.209 188.694 170.059 188.344C171.511 187.747 172.88 186.595 173.123 185.044C176.211 189.093 179.618 193.371 184.49 194.851C184.566 194.899 184.655 194.927 184.745 194.929C184.836 194.932 184.926 194.91 185.005 194.866C185.084 194.822 185.15 194.758 185.195 194.679C185.241 194.601 185.264 194.512 185.263 194.421C185.54 193.264 185.638 192.072 185.84 190.9C186.211 188.765 186.926 186.704 187.956 184.798C188.533 183.729 190.401 179.816 191.587 182.283Z" fill="#2F2E41"/>
<path opacity="0.1" d="M149.895 192.387C149.941 194.868 149.415 197.325 148.355 199.569C148.08 200.065 147.877 200.597 147.752 201.151C147.568 202.331 148.24 203.474 149.008 204.39C150.523 206.19 152.487 207.557 154.702 208.351" fill="black"/>
<path opacity="0.1" d="M186.379 190.297C186.131 190.963 186.356 191.699 186.547 192.383C187.099 194.367 187.358 196.422 187.313 198.482C187.321 198.518 187.32 198.555 187.309 198.591C187.299 198.626 187.281 198.659 187.255 198.685C187.229 198.711 187.197 198.731 187.162 198.742C187.127 198.753 187.089 198.755 187.053 198.748C186.243 198.797 185.315 198.803 184.765 198.205" fill="black"/>
<path opacity="0.1" d="M324.109 289.551C354.317 289.551 378.806 284.303 378.806 277.83C378.806 271.357 354.317 266.109 324.109 266.109C293.9 266.109 269.411 271.357 269.411 277.83C269.411 284.303 293.9 289.551 324.109 289.551Z" fill="black"/>
<path d="M351.457 173.21L347.55 177.117L351.457 181.024L355.364 173.21H351.457Z" fill="#A0616A"/>
<path d="M352.337 139.332C353.434 139.781 353.955 141.007 354.368 142.117L359.436 155.736L360.423 158.387C360.907 159.687 361.391 160.988 361.8 162.313C362.059 163.151 362.287 163.998 362.485 164.854C362.691 165.586 362.77 166.348 362.719 167.106C362.582 167.941 362.277 168.739 361.823 169.453C360.06 172.524 357.549 175.1 354.523 176.94C354.349 175.814 353.895 174.75 353.203 173.845C352.511 172.939 351.603 172.222 350.562 171.759L353.182 170.317C353.737 170.057 354.235 169.692 354.651 169.242C354.905 168.891 355.085 168.492 355.181 168.07C355.278 167.647 355.288 167.21 355.212 166.783C355.054 165.932 354.793 165.104 354.434 164.317C353.555 162.122 352.792 159.883 352.148 157.608C351.767 156.263 351.418 154.88 350.663 153.702C349.979 152.634 348.988 151.78 348.366 150.674C347.418 148.989 347.443 146.914 347.861 145.026C348.215 143.433 348.807 141.899 349.305 140.348C349.697 139.129 351.163 138.851 352.337 139.332Z" fill="#D0CDE1"/>
<path d="M328.174 102.946C326.158 103.627 324.333 105.219 323.92 107.305C323.729 108.272 323.846 109.278 323.685 110.251C323.312 112.507 321.541 114.23 319.907 115.83C318.274 117.43 316.587 119.29 316.468 121.574C316.337 124.074 318.151 126.417 317.837 128.901C317.473 131.787 314.424 133.658 313.671 136.467C313.167 138.344 313.784 140.365 314.798 142.021C316.732 145.178 320.036 147.322 323.555 148.47C327.074 149.619 330.822 149.861 334.523 149.9C339.03 149.947 343.924 149.56 347.31 146.586C349.245 144.871 350.459 142.489 350.711 139.917C351.033 136.471 349.595 132.911 350.587 129.595C351.211 127.509 352.777 125.603 352.543 123.438C352.314 121.32 350.465 119.82 349.197 118.109C348.012 116.512 347.294 114.627 346.589 112.767L344.179 106.406C343.705 105.155 343.185 103.84 342.129 103.019C340.153 101.482 336.974 101.784 334.663 102.101C332.519 102.395 330.236 102.25 328.174 102.946Z" fill="#2F2E41"/>
<path d="M330.038 123.912C330.038 123.912 330.274 130.989 329.566 131.696C328.859 132.404 332.397 137.122 332.397 137.122L338.766 136.886L342.069 134.291L339.238 130.517C339.238 130.517 338.059 124.384 339.002 122.968C339.946 121.553 330.038 123.912 330.038 123.912Z" fill="#A0616A"/>
<path opacity="0.1" d="M330.038 123.912C330.038 123.912 330.274 130.989 329.566 131.696C328.859 132.404 332.397 137.122 332.397 137.122L338.766 136.886L342.069 134.291L339.238 130.517C339.238 130.517 338.059 124.384 339.002 122.968C339.946 121.553 330.038 123.912 330.038 123.912Z" fill="black"/>
<path d="M315.294 178.523L319.304 187.487L322.371 183.712L316.238 175.692L315.294 178.523Z" fill="#A0616A"/>
<path d="M304.561 268.283L302.909 277.483L300.079 281.493L301.73 282.437L304.561 281.965L307.863 280.785L309.279 275.36L311.874 268.283H304.561Z" fill="#A0616A"/>
<path d="M334.756 262.621L333.812 275.832L336.171 277.719L339.946 274.416V264.744L334.756 262.621Z" fill="#A0616A"/>
<path d="M333.93 126.625C338.621 126.625 342.423 122.822 342.423 118.132C342.423 113.442 338.621 109.64 333.93 109.64C329.24 109.64 325.438 113.442 325.438 118.132C325.438 122.822 329.24 126.625 333.93 126.625Z" fill="#A0616A"/>
<path d="M340.484 129.555C340.229 129.432 339.951 129.366 339.669 129.36C339.386 129.355 339.106 129.411 338.847 129.523C338.332 129.751 337.832 130.012 337.35 130.304C336.11 130.948 334.705 131.204 333.318 131.037C333.155 131.024 332.996 130.983 332.847 130.916C332.689 130.818 332.544 130.7 332.415 130.567C331.912 130.158 331.27 129.961 330.625 130.017C329.979 130.072 329.38 130.377 328.955 130.865C328.705 131.176 328.535 131.547 328.262 131.838C327.557 132.592 326.394 132.623 325.362 132.621C323.222 132.561 321.083 132.757 318.99 133.205C316.887 133.659 314.95 134.685 313.394 136.17C312.969 136.569 312.631 137.052 312.4 137.587C312.115 138.321 312.153 139.146 311.897 139.89C311.612 140.719 310.981 141.4 310.725 142.238C310.533 142.87 310.56 143.573 310.238 144.15C311.616 145.343 312.784 146.934 314.163 148.128C315.076 148.918 316.031 149.772 316.375 150.93C316.529 151.643 316.597 152.373 316.579 153.103C316.749 156.592 318.642 159.757 320.758 162.537C321.338 163.362 322.033 164.099 322.82 164.728C323.89 165.457 325.105 165.944 326.381 166.158C328.791 166.651 331.272 166.649 333.731 166.624C336.273 166.599 338.86 166.545 341.277 165.755C342.506 165.412 343.613 164.725 344.466 163.775C345.46 162.554 345.848 160.788 347.204 159.988C347.532 159.838 347.843 159.652 348.131 159.434C348.407 159.135 348.603 158.77 348.699 158.374C349.173 156.892 349.435 155.351 349.475 153.796C349.441 152.862 349.504 151.928 349.664 151.008C349.899 150.197 350.24 149.421 350.68 148.701L353.49 143.605C353.719 143.191 353.659 142.581 353.68 142.109C353.659 141.427 353.45 140.765 353.076 140.195C351.253 136.974 348.39 134.468 344.956 133.087C344.685 132.995 344.428 132.869 344.189 132.712C343.908 132.475 343.67 132.192 343.487 131.874C342.741 130.75 341.83 129.484 340.484 129.555Z" fill="#D0CDE1"/>
<path d="M305.462 157.31C304.908 158.657 304.501 160.06 304.248 161.495C303.977 163.477 304.296 165.495 305.167 167.297C306.681 170.414 309.662 172.528 311.767 175.281C313.722 177.84 314.886 180.906 316.579 183.645C316.284 182.948 316.642 182.141 317.126 181.558C317.609 180.975 318.226 180.491 318.581 179.822C318.822 179.304 318.973 178.749 319.029 178.18C319.282 176.482 319.418 174.636 318.552 173.154C317.9 172.037 316.775 171.296 315.883 170.36C314.992 169.408 314.337 168.26 313.97 167.008C313.604 165.756 313.537 164.435 313.775 163.153C313.947 162.27 314.262 161.422 314.499 160.554C314.791 159.388 315.013 158.205 315.162 157.012L316.224 149.716C316.507 147.775 316.746 145.627 315.647 144.003C315.432 143.663 315.136 143.383 314.784 143.187C314.494 143.054 314.184 142.967 313.867 142.929C312.711 142.74 311.145 142.234 310.58 143.473C309.899 144.968 309.424 146.598 308.854 148.139L305.462 157.31Z" fill="#D0CDE1"/>
<path d="M345.949 161.302C345.949 161.302 331.925 164.015 328.623 164.015H322.725C322.725 164.015 320.602 167.789 320.602 171.563C320.602 175.338 306.684 228.18 306.684 228.18C306.684 228.18 293.473 271.585 308.099 271.821C322.725 272.057 331.925 272.765 332.161 267.811C332.397 262.857 333.812 198.928 333.812 198.928L336.014 231.8C336.606 239.938 335.974 248.119 334.139 256.069C333.083 260.526 333.247 265.413 338.53 266.396C348.674 268.283 361.413 266.631 361.413 263.093C361.413 259.554 354.808 180.999 354.808 180.999C354.808 180.999 351.505 169.44 349.618 168.497C347.731 167.553 345.949 161.302 345.949 161.302Z" fill="#2F2E41"/>
<path d="M301.966 281.021L307.156 279.134L310.694 270.17L314.468 269.698C314.468 269.698 312.345 274.18 311.166 274.888C309.986 275.596 308.099 281.493 308.099 281.493C308.099 281.493 309.043 283.852 304.561 284.796C300.079 285.74 296.776 286.447 296.776 286.447C296.776 286.447 296.304 285.504 298.427 283.145C300.55 280.786 303.029 276.814 303.029 276.814L301.966 281.021Z" fill="#2F2E41"/>
<path d="M333.812 270.17L332.869 277.247C332.869 277.247 335.464 281.022 336.171 281.022C336.879 281.022 340.653 277.719 340.653 277.719C340.653 277.719 340.418 274.18 340.653 273.237C340.889 272.293 341.361 267.811 340.653 267.575C339.946 267.339 339.946 272.833 339.946 272.833L336.879 276.068L333.922 274.295L333.812 270.17Z" fill="#2F2E41"/>
<path d="M334.638 118.132C339.719 118.132 343.838 115.914 343.838 113.178C343.838 110.442 339.719 108.224 334.638 108.224C329.557 108.224 325.438 110.442 325.438 113.178C325.438 115.914 329.557 118.132 334.638 118.132Z" fill="#2F2E41"/>
<path d="M0 210.395C0 238.185 17.4339 260.672 38.9789 260.672L0 210.395Z" fill="#3F3D56"/>
<path d="M38.9789 260.672C38.9789 232.57 58.4342 209.83 82.4772 209.83L38.9789 260.672Z" fill="#D72D35"/>
<path d="M14.1228 212.914C14.1228 239.312 25.2401 260.672 38.9789 260.672L14.1228 212.914Z" fill="#D72D35"/>
<path d="M38.9789 260.672C38.9789 224.764 61.4662 195.707 89.2561 195.707L38.9789 260.672Z" fill="#3F3D56"/>
<path d="M30.7788 261.027C30.7788 261.027 36.3066 260.856 37.9726 259.67C39.6385 258.484 46.4758 257.067 46.8891 258.97C47.3024 260.872 55.1964 268.432 48.9555 268.483C42.7146 268.533 34.4544 267.51 32.7916 266.498C31.1289 265.485 30.7788 261.027 30.7788 261.027Z" fill="#A8A8A8"/>
<path opacity="0.2" d="M49.0669 267.82C42.826 267.871 34.5658 266.848 32.903 265.835C31.6367 265.064 31.1321 262.296 30.9633 261.019C30.8464 261.024 30.7788 261.026 30.7788 261.026C30.7788 261.026 31.1289 265.485 32.7916 266.498C34.4544 267.51 42.7146 268.533 48.9555 268.483C50.757 268.468 51.3793 267.827 51.3451 266.878C51.0948 267.451 50.4078 267.809 49.0669 267.82Z" fill="black"/>
</svg>
