<svg width="461" height="308" viewBox="0 0 461 308" fill="none" xmlns="http://www.w3.org/2000/svg">
<g filter="url(#filter0_d)">
<path d="M456.451 111.07H266.269V116.09H456.451V111.07Z" fill="#E6E6E6"/>
<path d="M330.171 69.0868H281.991V112.439H330.171V69.0868Z" fill="#E6E6E6"/>
<path d="M320.534 77.7573H291.627V103.768H320.534V77.7573Z" fill="#CCCCCC"/>
<path d="M402.186 69.0868H390.014V112.439H402.186V69.0868Z" fill="#E6E6E6"/>
<path d="M402.186 75.932H390.014V80.9513H402.186V75.932Z" fill="#CCCCCC"/>
<path d="M402.186 97.8359H390.014V102.856H402.186V97.8359Z" fill="#CCCCCC"/>
<path d="M383.421 69.0868H371.25V112.439H383.421V69.0868Z" fill="#E6E6E6"/>
<path d="M383.421 75.932H371.25V80.9513H383.421V75.932Z" fill="#CCCCCC"/>
<path d="M383.421 97.8359H371.25V102.856H383.421V97.8359Z" fill="#CCCCCC"/>
<path d="M412.673 68.9076L401.765 73.767L423.142 112.618L434.05 107.759L412.673 68.9076Z" fill="#E6E6E6"/>
<path d="M416.048 75.0416L405.14 79.901L407.616 84.4L418.524 79.5406L416.048 75.0416Z" fill="#CCCCCC"/>
<path d="M426.849 94.6721L415.941 99.5315L418.417 104.03L429.325 99.1706L426.849 94.6721Z" fill="#CCCCCC"/>
<path d="M299.995 86.4884L306.124 96.0412L312.254 105.594H299.995H287.736L293.865 96.0412L299.995 86.4884Z" fill="#E6E6E6"/>
<path d="M310.645 88.3137L316.774 97.8665L322.904 107.419H310.645H298.386L304.516 97.8665L310.645 88.3137Z" fill="#E6E6E6"/>
<path d="M314.955 85.5147C316.916 85.5147 318.506 84.0847 318.506 82.3203C318.506 80.5563 316.916 79.1263 314.955 79.1263C312.995 79.1263 311.406 80.5563 311.406 82.3203C311.406 84.0847 312.995 85.5147 314.955 85.5147Z" fill="#E6E6E6"/>
<path d="M266.269 47.1823H456.451V42.1626H266.269V47.1823Z" fill="#E6E6E6"/>
<path d="M392.55 43.5317H440.729V0.179321H392.55V43.5317Z" fill="#E6E6E6"/>
<path d="M402.186 34.8612H431.093V8.84973H402.186V34.8612Z" fill="#CCCCCC"/>
<path d="M320.535 43.5317H332.706V0.179321H320.535V43.5317Z" fill="#E6E6E6"/>
<path d="M320.535 12.0442H332.706V7.02441H320.535V12.0442Z" fill="#CCCCCC"/>
<path d="M320.535 33.9485H332.706V28.9287H320.535V33.9485Z" fill="#CCCCCC"/>
<path d="M339.299 43.5317H351.471V0.179321H339.299V43.5317Z" fill="#E6E6E6"/>
<path d="M339.299 12.0442H351.471V7.02441H339.299V12.0442Z" fill="#CCCCCC"/>
<path d="M339.299 33.9485H351.471V28.9287H339.299V33.9485Z" fill="#CCCCCC"/>
<path d="M288.67 38.8515L299.578 43.7109L320.955 4.85937L310.047 0L288.67 38.8515Z" fill="#E6E6E6"/>
<path d="M304.197 10.633L315.105 15.4924L317.58 10.9937L306.672 6.1344L304.197 10.633Z" fill="#CCCCCC"/>
<path d="M293.395 30.2633L304.303 35.1227L306.779 30.6241L295.871 25.7648L293.395 30.2633Z" fill="#CCCCCC"/>
<path d="M422.725 17.5807L416.596 27.1335L410.467 36.6863H422.725H434.985L428.855 27.1335L422.725 17.5807Z" fill="#E6E6E6"/>
<path d="M412.075 19.4061L405.946 28.9589L399.817 38.5117H412.075H424.334L418.205 28.9589L412.075 19.4061Z" fill="#E6E6E6"/>
<path d="M407.765 16.6075C409.725 16.6075 411.314 15.1773 411.314 13.4131C411.314 11.6489 409.725 10.2188 407.765 10.2188C405.804 10.2188 404.215 11.6489 404.215 13.4131C404.215 15.1773 405.804 16.6075 407.765 16.6075Z" fill="#E6E6E6"/>
<path d="M266.269 184.997H456.451V179.977H266.269V184.997Z" fill="#E6E6E6"/>
<path d="M392.55 181.346H440.729V137.994H392.55V181.346Z" fill="#E6E6E6"/>
<path d="M402.186 172.676H431.093V146.664H402.186V172.676Z" fill="#CCCCCC"/>
<path d="M320.535 181.346H332.706V137.994H320.535V181.346Z" fill="#E6E6E6"/>
<path d="M320.535 149.859H332.706V144.839H320.535V149.859Z" fill="#CCCCCC"/>
<path d="M320.535 171.763H332.706V166.744H320.535V171.763Z" fill="#CCCCCC"/>
<path d="M339.299 181.346H351.471V137.994H339.299V181.346Z" fill="#E6E6E6"/>
<path d="M339.299 149.859H351.471V144.839H339.299V149.859Z" fill="#CCCCCC"/>
<path d="M339.299 171.763H351.471V166.744H339.299V171.763Z" fill="#CCCCCC"/>
<path d="M288.67 176.666L299.578 181.526L320.955 142.674L310.047 137.815L288.67 176.666Z" fill="#E6E6E6"/>
<path d="M304.197 148.448L315.105 153.307L317.58 148.809L306.672 143.949L304.197 148.448Z" fill="#CCCCCC"/>
<path d="M293.395 168.078L304.303 172.938L306.779 168.439L295.871 163.58L293.395 168.078Z" fill="#CCCCCC"/>
<path d="M422.725 155.395L416.596 164.948L410.467 174.502H422.725H434.985L428.855 164.948L422.725 155.395Z" fill="#E6E6E6"/>
<path d="M412.075 157.221L405.946 166.774L399.817 176.327H412.075H424.334L418.205 166.774L412.075 157.221Z" fill="#E6E6E6"/>
<path d="M407.765 154.422C409.725 154.422 411.314 152.992 411.314 151.228C411.314 149.464 409.725 148.034 407.765 148.034C405.804 148.034 404.215 149.464 404.215 151.228C404.215 152.992 405.804 154.422 407.765 154.422Z" fill="#E6E6E6"/>
<path d="M228.034 299.957C351.765 299.957 452.069 293.547 452.069 285.64C452.069 277.733 351.765 271.323 228.034 271.323C104.304 271.323 4 277.733 4 285.64C4 293.547 104.304 299.957 228.034 299.957Z" fill="#E6E6E6"/>
<path d="M403.061 293.658C366.531 287.808 326.583 288.78 284.679 293.658C303.778 279.15 320.262 264.641 301.163 250.133C338.418 257.049 343.636 256.349 385.079 250.133C375.467 264.641 393.449 279.15 403.061 293.658Z" fill="#D72D35"/>
<path opacity="0.2" d="M403.061 293.658C366.531 287.808 326.583 288.78 284.679 293.658C303.778 279.15 320.262 264.641 301.163 250.133C338.418 257.049 343.636 256.349 385.079 250.133C375.467 264.641 393.449 279.15 403.061 293.658Z" fill="black"/>
<path d="M394.151 287.468C363.12 282.798 329.186 283.575 293.59 287.468C309.814 275.887 323.816 264.307 307.592 252.726C339.239 258.246 343.672 257.687 378.876 252.726C370.711 264.307 385.986 275.887 394.151 287.468Z" fill="#D72D35"/>
<path d="M382.331 268.809C391.463 268.809 398.865 262.148 398.865 253.931C398.865 245.714 391.463 239.053 382.331 239.053C373.199 239.053 365.797 245.714 365.797 253.931C365.797 262.148 373.199 268.809 382.331 268.809Z" fill="#2F2E41"/>
<path d="M307.274 236.675L318.73 238.393L324.458 253.283L307.911 262.446L288.816 236.675H306.637H307.274Z" fill="#A0616A"/>
<path d="M339.733 259.583C354.497 259.583 366.465 248.814 366.465 235.529C366.465 222.245 354.497 211.476 339.733 211.476C324.97 211.476 313.002 222.245 313.002 235.529C313.002 248.814 324.97 259.583 339.733 259.583Z" fill="#A0616A"/>
<path d="M192.075 147.907C192.075 147.907 127.155 154.207 115.699 153.062C104.243 151.916 99.1509 150.771 99.1509 150.771C99.1509 150.771 91.5136 159.934 95.3322 163.943C97.4709 166.253 100.059 168.194 102.969 169.67C102.969 169.67 109.971 167.951 115.062 169.67C120.154 171.388 171.708 178.833 180.618 171.961C189.529 165.088 192.075 147.907 192.075 147.907Z" fill="#2F2E41"/>
<path d="M196.53 275.618C196.53 275.618 153.887 264.737 146.249 216.631V212.049C146.249 212.049 137.812 225.368 134.793 228.084C131.292 231.234 118.881 259.583 119.518 262.446C120.154 265.31 119.518 266.455 119.518 266.455L101.06 264.737V259.583C101.06 259.583 110.925 232.952 111.562 226.653C112.198 220.353 136.066 176.542 136.066 176.542C136.066 176.542 144.976 159.934 160.251 176.542C175.526 193.15 176.799 204.604 176.799 204.604L196.53 238.966V275.618Z" fill="#2F2E41"/>
<path d="M101.06 149.052L80.6935 142.753C80.6935 142.753 61.5998 130.153 66.0548 142.753C70.5103 155.352 90.8767 182.842 96.6049 179.978C102.333 177.115 109.222 170.007 107.687 168.979C106.152 167.951 95.9686 160.507 101.06 149.052Z" fill="#2F2E41"/>
<path d="M103.522 256.202L87.0812 263.426C87.0812 263.426 67.1988 266.179 78.2869 271.339C89.3755 276.5 119.963 282.005 121.493 277.188C123.022 272.372 122.415 264.378 120.807 264.59C119.199 264.803 108.11 265.835 103.522 256.202Z" fill="#2F2E41"/>
<path d="M188.255 237.82C188.255 237.82 179.982 269.891 193.984 276.764C207.986 283.636 306.001 284.781 313.638 272.182C321.276 259.583 317.457 259.583 317.457 259.583L297.09 238.966L313.638 237.82C313.638 237.82 313.638 233.239 307.91 232.666C302.182 232.093 284.361 226.366 269.086 230.375C253.811 234.384 244.901 222.357 244.901 222.357L188.255 237.82Z" fill="#575A89"/>
<path d="M177.436 137.599L166.616 190.859L241.082 182.842L254.448 134.735L177.436 137.599Z" fill="#3F3D56"/>
<path d="M179.664 139.603L170.753 187.137L238.536 179.978L251.583 136.74L179.664 139.603Z" fill="white"/>
<path d="M169.162 191.432L166.616 190.859L165.343 193.15L185.71 244.12L187.625 243.461L188.255 240.111L169.162 191.432Z" fill="#B3B3B3"/>
<path d="M166.616 190.286L186.983 243.547L263.994 233.239L241.082 182.842L166.616 190.286Z" fill="#D0CDE1"/>
<path d="M176.799 188.569V191.432L233.444 185.705L232.808 182.842L176.799 188.569Z" fill="#3F3D56"/>
<path d="M178.072 194.295L186.983 216.63L244.901 210.331L234.717 189.141L178.072 194.295Z" fill="#3F3D56"/>
<path d="M250.629 225.793L248.719 221.212C248.719 221.212 234.081 198.304 226.443 202.886C218.805 207.467 242.355 229.803 242.355 229.803H249.992L250.629 225.793Z" fill="#A0616A"/>
<path d="M202.258 229.229L200.349 222.357C200.349 222.357 195.257 201.167 204.167 202.313C213.078 203.458 215.624 223.502 215.624 223.502L214.987 228.084L202.258 229.229Z" fill="#A0616A"/>
<path d="M217.533 226.366C217.533 226.366 200.984 224.076 200.348 227.512C199.712 230.948 196.53 282.49 212.441 284.209C228.352 285.926 307.274 293.372 298.999 275.618C290.726 257.864 277.997 260.155 277.997 260.155L223.897 265.31L217.533 226.366Z" fill="#575A89"/>
<path d="M267.495 232.952L250.629 222.357L239.491 230.089L253.493 243.834L267.495 232.952Z" fill="#575A89"/>
<path opacity="0.2" d="M222.307 243.261L224.852 265.023L268.768 262.732L230.58 262.16L222.307 243.261Z" fill="black"/>
<path d="M352.929 268.534C370.504 268.534 384.752 255.714 384.752 239.9C384.752 224.085 370.504 211.265 352.929 211.265C335.353 211.265 321.106 224.085 321.106 239.9C321.106 255.714 335.353 268.534 352.929 268.534Z" fill="#2F2E41"/>
<path d="M189.21 156.211L228.671 154.975L232.49 141.894L191.756 143L189.21 156.211Z" fill="#D72D35"/>
<path d="M179.027 163.656L238.854 161.938L239.491 159.647L179.664 161.543L179.027 163.656Z" fill="#E6E6E6"/>
<path d="M177.754 169.383L237.582 167.665L238.218 165.374L178.39 167.27L177.754 169.383Z" fill="#E6E6E6"/>
<path d="M177.118 173.964L236.945 172.247L237.582 169.956L177.754 171.851L177.118 173.964Z" fill="#E6E6E6"/>
</g>
<defs>
<filter id="filter0_d" x="0" y="0" width="461" height="308" filterUnits="userSpaceOnUse" color-interpolation-filters="sRGB">
<feFlood flood-opacity="0" result="BackgroundImageFix"/>
<feColorMatrix in="SourceAlpha" type="matrix" values="0 0 0 0 0 0 0 0 0 0 0 0 0 0 0 0 0 0 127 0"/>
<feOffset dy="4"/>
<feGaussianBlur stdDeviation="2"/>
<feColorMatrix type="matrix" values="0 0 0 0 0 0 0 0 0 0 0 0 0 0 0 0 0 0 0.25 0"/>
<feBlend mode="normal" in2="BackgroundImageFix" result="effect1_dropShadow"/>
<feBlend mode="normal" in="SourceGraphic" in2="effect1_dropShadow" result="shape"/>
</filter>
</defs>
</svg>
