<svg width="461" height="312" viewBox="0 0 461 312" fill="none" xmlns="http://www.w3.org/2000/svg">
<g filter="url(#filter0_d)">
<path fill-rule="evenodd" clip-rule="evenodd" d="M361.26 111.434C362.062 112.037 362.781 112.745 363.398 113.538L366.122 113.033L367.934 117.289L365.687 118.925C365.832 119.92 365.844 120.93 365.723 121.928L368.001 123.515L366.291 127.802L363.555 127.358C362.958 128.165 362.255 128.887 361.465 129.504L361.961 132.252L357.733 134.076L356.132 131.796C355.13 131.936 354.114 131.936 353.112 131.796L351.536 134.094L347.308 132.374L347.748 129.62C346.945 129.018 346.226 128.311 345.61 127.516L342.886 128.014L341.074 123.758L343.315 122.123C343.183 121.114 343.183 120.092 343.315 119.083L341.032 117.569L342.741 113.313L345.477 113.751C346.076 112.945 346.779 112.224 347.567 111.605L347.072 108.832L351.3 107.008L352.925 109.264C353.925 109.117 354.941 109.107 355.945 109.233L357.515 106.941L361.773 108.662L361.332 111.416L361.26 111.434ZM356.519 116.025C355.616 115.66 354.627 115.573 353.675 115.774C352.724 115.976 351.853 116.456 351.173 117.156C350.493 117.856 350.034 118.742 349.855 119.704C349.675 120.666 349.783 121.66 350.165 122.56C350.547 123.46 351.185 124.227 351.999 124.762C352.813 125.297 353.767 125.577 354.739 125.566C355.711 125.556 356.659 125.256 357.461 124.703C358.264 124.151 358.886 123.372 359.249 122.463C359.489 121.86 359.61 121.215 359.603 120.565C359.596 119.915 359.462 119.273 359.209 118.675C358.955 118.077 358.587 117.535 358.126 117.08C357.664 116.626 357.118 116.267 356.519 116.025V116.025Z" fill="#EBEBEB"/>
<path fill-rule="evenodd" clip-rule="evenodd" d="M108.383 129.936C109.831 131.027 111.129 132.307 112.243 133.742L117.171 132.836L120.427 140.509L116.344 143.488C116.604 145.289 116.622 147.117 116.398 148.924L120.518 151.787L117.431 159.533L112.509 158.688C111.428 160.149 110.156 161.455 108.728 162.573L109.628 167.534L102.005 170.848L99.0696 166.762C97.2803 167.023 95.4645 167.043 93.6698 166.823L90.819 170.964L83.124 167.845L83.9152 162.865C82.4671 161.774 81.1693 160.494 80.0557 159.059L75.1331 159.965L71.8775 152.292L75.9364 149.337C75.6775 147.536 75.6572 145.708 75.876 143.902L71.7628 141.056L74.8552 133.316L79.796 134.119C80.8816 132.661 82.1528 131.352 83.577 130.228L82.677 125.248L90.2995 121.971L93.241 126.057C95.0303 125.796 96.8461 125.776 98.6408 125.996L101.486 121.849L109.181 124.962L108.383 129.936V129.936ZM99.8186 138.241C98.1868 137.581 96.3972 137.422 94.676 137.786C92.9548 138.149 91.3794 139.019 90.149 140.284C88.9187 141.549 88.0887 143.153 87.764 144.893C87.4393 146.632 87.6345 148.43 88.3249 150.058C89.0154 151.687 90.17 153.072 91.6428 154.04C93.1156 155.007 94.8403 155.513 96.5989 155.494C98.3575 155.475 100.071 154.931 101.522 153.931C102.974 152.932 104.098 151.521 104.753 149.878C105.629 147.676 105.602 145.214 104.677 143.032C103.752 140.851 102.004 139.127 99.8186 138.241V138.241Z" fill="#EBEBEB"/>
<path fill-rule="evenodd" clip-rule="evenodd" d="M88.1613 91.0967C88.9615 91.6997 89.6785 92.4072 90.2935 93.2004L93.0175 92.7019L94.8295 96.9579L92.5887 98.5934C92.7244 99.6021 92.7244 100.625 92.5887 101.633L94.8657 103.22L93.1564 107.476L90.4263 107.032C89.8253 107.84 89.1205 108.564 88.3305 109.185L88.8318 111.927L84.6038 113.751L82.979 111.495C81.9887 111.626 80.9856 111.626 79.9953 111.495L78.4188 113.787L74.1908 112.067L74.6318 109.312C73.8302 108.711 73.113 108.003 72.4996 107.209L69.7696 107.707L67.9576 103.451L70.2044 101.816C70.0584 100.819 70.0482 99.8061 70.1742 98.8062L67.8911 97.2254L69.6004 92.939L72.3366 93.3828C72.9355 92.5755 73.6383 91.8517 74.4264 91.2305L73.9311 88.4884L78.1591 86.6644L79.7839 88.9262C80.7843 88.7775 81.8001 88.7652 82.8039 88.8897L84.3803 86.5975L88.6083 88.3182L88.1734 91.0724L88.1613 91.0967ZM83.42 95.6871C82.5172 95.3213 81.527 95.233 80.5744 95.4334C79.6218 95.6338 78.7497 96.1139 78.068 96.8131C77.3864 97.5123 76.926 98.3991 76.7449 99.3616C76.5638 100.324 76.6701 101.319 77.0505 102.221C77.4309 103.122 78.0683 103.89 78.882 104.427C79.6958 104.965 80.6495 105.247 81.6227 105.239C82.5958 105.231 83.5447 104.932 84.3494 104.381C85.1541 103.831 85.7786 103.052 86.144 102.144C86.387 101.54 86.5093 100.894 86.5039 100.242C86.4985 99.5907 86.3655 98.9466 86.1124 98.3469C85.8594 97.7471 85.4913 97.2035 85.0293 96.7471C84.5673 96.2907 84.0204 95.9305 83.42 95.6871V95.6871Z" fill="#F0F0F0"/>
<path fill-rule="evenodd" clip-rule="evenodd" d="M143.639 57.3284C145.979 58.1941 148.193 59.372 150.222 60.8305L156.383 57.681L163.679 66.5335L159.451 72.0481C160.497 74.327 161.239 76.7354 161.656 79.2103L168.215 81.3687L167.158 92.8234L160.309 93.7233C159.449 96.0809 158.279 98.3119 156.83 100.357L159.959 106.558L151.159 113.903L145.686 109.647C143.427 110.703 141.039 111.451 138.583 111.872L136.439 118.481L125.06 117.411L124.196 110.528C121.856 109.663 119.641 108.485 117.612 107.026L111.452 110.17L104.155 101.317L108.383 95.8026C107.337 93.5237 106.596 91.1153 106.179 88.6404L99.6192 86.482L100.64 75.0273L107.489 74.1274C108.346 71.7689 109.512 69.5361 110.956 67.4881L107.828 61.2925L116.628 53.9479L122.1 58.2039C124.364 57.1455 126.759 56.3991 129.221 55.9847L131.365 49.3757L142.745 50.4641L143.639 57.3588V57.3284ZM135.557 71.6893C133.142 71.4629 130.715 71.9624 128.583 73.1246C126.45 74.2868 124.707 76.0596 123.576 78.2187C122.444 80.3778 121.974 82.8263 122.224 85.2544C122.475 87.6826 123.435 89.9814 124.984 91.86C126.533 93.7387 128.6 95.1129 130.925 95.8088C133.249 96.5047 135.727 96.4911 138.043 95.7696C140.36 95.0482 142.413 93.6513 143.941 91.7557C145.469 89.8601 146.404 87.5508 146.629 85.1201C146.778 83.5063 146.611 81.8787 146.135 80.3302C145.66 78.7817 144.886 77.3427 143.858 76.0954C142.829 74.8481 141.567 73.817 140.143 73.061C138.719 72.305 137.16 71.8389 135.557 71.6893V71.6893Z" fill="#E0E0E0"/>
<path d="M95.8744 246.848C103.412 241.881 105.327 232.365 105.248 223.744C105.248 222.309 105.43 220.801 104.771 219.524C104.113 218.248 102.537 217.354 101.226 217.925C100.145 218.4 99.6494 219.628 99.0213 220.637C98.1837 221.988 96.984 223.074 95.5603 223.768C94.6302 224.218 93.4886 224.48 92.5947 223.963C91.3867 223.251 91.2598 221.531 91.3021 220.114C91.3867 217.455 91.4672 214.798 91.5437 212.143C91.6675 210.716 91.5573 209.278 91.2176 207.887C91.0374 207.199 90.6962 206.563 90.2223 206.034C89.7484 205.505 89.1556 205.098 88.4935 204.847C87.1345 204.434 85.4312 205.176 85.1051 206.562C85.0375 207.151 85.0092 207.744 85.0205 208.337C85.0217 208.635 84.9351 208.926 84.7716 209.174C84.6082 209.422 84.3753 209.615 84.1024 209.73C83.8056 209.757 83.5066 209.708 83.2339 209.587C82.9612 209.465 82.7238 209.276 82.5441 209.036C81.1689 207.488 80.0549 205.724 79.2463 203.814C78.4389 201.906 77.4089 200.102 76.178 198.439C74.8733 196.834 73.0432 195.545 70.9896 195.399C68.936 195.253 66.7193 196.445 66.1576 198.439C65.5959 200.433 66.7193 202.507 67.9696 204.16C69.82 206.626 72.0151 208.809 74.4868 210.642C74.968 210.921 75.3487 211.347 75.574 211.858C75.8578 212.818 74.9277 213.736 73.9794 214.028C72.8982 214.356 71.7386 214.217 70.6212 214.32C69.5038 214.423 68.2716 214.885 67.8246 215.925C67.2206 217.372 68.3924 218.929 69.5702 219.956C71.9459 222.024 74.6544 223.669 77.5792 224.82C78.6578 225.145 79.6688 225.664 80.563 226.352C81.3965 227.106 81.8797 228.401 81.3422 229.392C80.8046 230.383 79.4758 230.675 78.3705 230.444C77.3047 230.125 76.2681 229.714 75.272 229.216C73.315 228.432 70.7661 228.505 69.4615 230.171C69.0586 230.739 68.7941 231.396 68.6892 232.086C68.5843 232.777 68.6419 233.483 68.8575 234.147C69.3086 235.468 70.0194 236.684 70.9473 237.722C73.9931 241.538 77.9879 244.475 82.526 246.234C87.062 247.924 91.2961 248.453 95.8804 246.909" fill="#D72D35"/>
<path d="M68.2716 196.56L68.4105 196.7L68.8273 197.083C69.1957 197.424 69.7333 197.922 70.4158 198.585C72.3419 200.453 74.1266 202.463 75.7552 204.598C76.788 205.942 77.8631 207.468 78.9866 209.122C80.11 210.775 81.2878 212.563 82.4656 214.478C83.7078 216.472 84.839 218.535 85.854 220.655C86.3856 221.756 86.8506 222.911 87.3218 224.084C87.7929 225.258 88.2761 226.45 88.7593 227.659C90.611 232.177 92.2062 236.797 93.5369 241.498C94.6078 245.341 95.3136 249.278 95.6449 253.256C95.8614 255.938 95.8412 258.634 95.5845 261.312C95.4878 262.255 95.3972 262.99 95.3187 263.489C95.2825 263.726 95.2583 263.914 95.2342 264.054C95.2301 264.119 95.2301 264.184 95.2342 264.249C95.2545 264.187 95.2707 264.124 95.2825 264.06C95.2825 263.921 95.3429 263.732 95.3852 263.495C95.4818 263.002 95.5905 262.279 95.7053 261.324C96.0014 258.641 96.0499 255.936 95.8502 253.244C95.5468 249.25 94.857 245.296 93.7906 241.437C92.4692 236.721 90.878 232.087 89.025 227.556C88.5338 226.34 88.0546 225.15 87.5875 223.987C87.1104 222.814 86.6392 221.652 86.1077 220.54C85.0827 218.413 83.9414 216.344 82.6891 214.344C81.4811 212.429 80.3093 210.654 79.1859 209C78.0624 207.346 76.9692 205.826 75.9182 204.483C74.2655 202.351 72.4478 200.355 70.4822 198.512C69.7876 197.861 69.232 197.369 68.8514 197.047L68.4226 196.676C68.326 196.597 68.2776 196.554 68.2716 196.56Z" fill="#263238"/>
<path d="M86.0171 220.528C86.0889 220.331 86.1395 220.127 86.1681 219.92C86.2527 219.524 86.3614 218.959 86.4762 218.248C86.7117 216.831 86.9775 214.867 87.2553 212.703C87.5332 210.538 87.8231 208.58 88.0828 207.17C88.2097 206.471 88.3184 205.899 88.3969 205.504C88.4514 205.306 88.4839 205.102 88.4935 204.896C88.4021 205.089 88.3351 205.294 88.2942 205.504C88.1855 205.887 88.0466 206.452 87.8956 207.152C87.5936 208.556 87.2916 210.514 86.9956 212.684C86.6997 214.855 86.4762 216.758 86.295 218.242C86.2044 218.904 86.1259 219.458 86.0715 219.92C86.0301 220.12 86.0118 220.324 86.0171 220.528Z" fill="#263238"/>
<path d="M67.6495 216.661C67.8893 216.718 68.134 216.753 68.3803 216.764C68.8514 216.819 69.54 216.892 70.3796 217.013C72.0647 217.232 74.3841 217.621 76.9209 218.156C79.4577 218.691 81.7529 219.293 83.3656 219.762C84.187 219.993 84.8454 220.199 85.2984 220.339C85.5309 220.427 85.7717 220.49 86.0171 220.528C85.7965 220.416 85.5685 220.321 85.3346 220.242C84.8876 220.072 84.2353 219.841 83.4199 219.585C81.7952 219.062 79.5181 218.442 76.9752 217.901C74.8041 217.431 72.6108 217.072 70.4037 216.825C69.5521 216.728 68.8635 216.685 68.3924 216.667C68.1456 216.64 67.8967 216.638 67.6495 216.661V216.661Z" fill="#263238"/>
<path d="M93.5551 241.09C93.6086 241.023 93.6533 240.95 93.6879 240.871L94.0201 240.215C94.304 239.643 94.6966 238.81 95.1677 237.783C96.11 235.703 97.318 232.791 98.6045 229.562C99.891 226.334 101.081 223.41 101.975 221.318L103.044 218.837L103.334 218.163C103.394 218.004 103.424 217.919 103.412 217.919C103.363 217.988 103.32 218.061 103.285 218.138L102.953 218.795C102.663 219.366 102.277 220.199 101.806 221.227C100.863 223.306 99.6554 226.218 98.3629 229.447C97.0703 232.675 95.8925 235.6 94.9926 237.691C94.5577 238.713 94.1953 239.552 93.9235 240.172L93.6396 240.847C93.6011 240.924 93.5727 241.006 93.5551 241.09V241.09Z" fill="#263238"/>
<path d="M69.232 232.651C69.232 232.651 69.3105 232.7 69.4676 232.761L70.1742 233.01L72.7835 233.922C74.9821 234.688 78.0081 235.782 81.3482 236.998C84.6883 238.214 87.7265 239.278 89.9431 240.002C91.0545 240.367 91.9484 240.646 92.5766 240.829L93.2953 241.035C93.4645 241.084 93.5551 241.102 93.5551 241.09C93.4783 241.047 93.3973 241.013 93.3135 240.987L92.6068 240.731L90.0035 239.826C87.805 239.059 84.779 237.965 81.4388 236.749C78.0987 235.533 75.0546 234.463 72.8439 233.739C71.7326 233.381 70.8326 233.095 70.2105 232.913L69.4857 232.706C69.4031 232.679 69.3182 232.661 69.232 232.651V232.651Z" fill="#263238"/>
<path d="M340.984 182.692L304.544 182.522C303.501 182.519 302.469 182.309 301.507 181.904C300.545 181.499 299.672 180.907 298.938 180.161C298.203 179.415 297.623 178.531 297.229 177.559C296.836 176.587 296.637 175.546 296.644 174.496L297.031 82.7914C297.036 81.7433 297.247 80.7066 297.65 79.7405C298.054 78.7744 298.643 77.8979 299.384 77.1611C300.124 76.4242 301.001 75.8415 301.966 75.4461C302.93 75.0507 303.962 74.8506 305.003 74.857L341.443 75.0211C343.544 75.0292 345.557 75.8761 347.039 77.3761C348.522 78.8761 349.352 80.9067 349.349 83.0224L348.962 174.733C348.959 175.784 348.75 176.823 348.347 177.792C347.944 178.761 347.355 179.64 346.614 180.379C345.873 181.119 344.994 181.704 344.028 182.1C343.062 182.497 342.027 182.698 340.984 182.692V182.692Z" fill="#455A64"/>
<path d="M341.394 78.2131H334.328C334.098 78.2163 333.871 78.2651 333.66 78.3567C333.449 78.4484 333.258 78.581 333.098 78.7471C332.938 78.9132 332.812 79.1094 332.728 79.3245C332.644 79.5396 332.602 79.7694 332.606 80.0007V81.2896C332.611 81.7563 332.433 82.2062 332.111 82.5419C331.789 82.8776 331.348 83.0721 330.885 83.0832L317.108 83.0163C316.876 83.0109 316.648 82.9591 316.437 82.8642C316.226 82.7692 316.035 82.6329 315.877 82.4632C315.718 82.2934 315.595 82.0937 315.514 81.8755C315.433 81.6573 315.395 81.4251 315.404 81.1923V79.8912C315.412 79.6586 315.375 79.4268 315.293 79.209C315.212 78.9912 315.088 78.7917 314.93 78.6221C314.772 78.4526 314.582 78.3163 314.371 78.221C314.16 78.1258 313.932 78.0735 313.701 78.0672H311.212H305.028C304.299 78.0632 303.576 78.2038 302.901 78.4809C302.226 78.758 301.612 79.1662 301.094 79.6822C300.575 80.1983 300.163 80.812 299.881 81.4884C299.598 82.1648 299.451 82.8906 299.447 83.6243L299.066 173.14C299.063 174.623 299.644 176.046 300.683 177.097C301.721 178.148 303.132 178.741 304.605 178.746L340.972 178.916C342.444 178.923 343.859 178.341 344.906 177.3C345.953 176.258 346.547 174.841 346.559 173.359L346.933 83.8432C346.939 83.1069 346.799 82.3767 346.524 81.6947C346.248 81.0127 345.841 80.3922 345.326 79.869C344.812 79.3458 344.199 78.9302 343.525 78.646C342.85 78.3618 342.126 78.2147 341.394 78.2131V78.2131Z" fill="white"/>
<path d="M340.796 139.123H304.81V141.548H340.796V139.123Z" fill="#455A64"/>
<path d="M339.516 148.662C339.516 148.747 331.833 148.82 322.362 148.82C312.892 148.82 305.203 148.747 305.203 148.662C305.203 148.577 312.886 148.504 322.362 148.504C331.839 148.504 339.516 148.577 339.516 148.662Z" fill="#455A64"/>
<path d="M339.516 91.2001C339.516 91.2913 331.833 91.3581 322.362 91.3581C312.892 91.3581 305.203 91.2913 305.203 91.2001C305.203 91.1089 312.886 91.042 322.362 91.042C331.839 91.042 339.516 91.0967 339.516 91.2001Z" fill="#455A64"/>
<path d="M339.516 153.076C339.516 153.161 331.833 153.234 322.362 153.234C312.892 153.234 305.203 153.161 305.203 153.076C305.203 152.991 312.886 152.918 322.362 152.918C331.839 152.918 339.516 152.985 339.516 153.076Z" fill="#455A64"/>
<path d="M339.516 157.472C339.516 157.557 331.833 157.63 322.362 157.63C312.892 157.63 305.203 157.557 305.203 157.472C305.203 157.387 312.886 157.314 322.362 157.314C331.839 157.314 339.516 157.399 339.516 157.472Z" fill="#455A64"/>
<path d="M339.516 161.898C339.516 161.983 331.833 162.056 322.362 162.056C312.892 162.056 305.203 161.983 305.203 161.898C305.203 161.813 312.886 161.74 322.362 161.74C331.839 161.74 339.516 161.807 339.516 161.898Z" fill="#455A64"/>
<path d="M339.516 166.306C339.516 166.397 331.833 166.464 322.362 166.464C312.892 166.464 305.203 166.397 305.203 166.306C305.203 166.215 312.886 166.148 322.362 166.148C331.839 166.148 339.516 166.221 339.516 166.306Z" fill="#455A64"/>
<path d="M340.005 171.31C340.005 171.395 332.322 171.468 322.852 171.468C313.381 171.468 305.692 171.395 305.692 171.31C305.692 171.225 313.375 171.152 322.852 171.152C332.328 171.152 340.005 171.219 340.005 171.31Z" fill="#455A64"/>
<path d="M341.28 96.2159H305.203V131.352H341.28V96.2159Z" fill="#E0E0E0"/>
<path d="M307.999 128.343L317.983 110.261L326.143 121.819L331.102 115.678L338.483 128.343H307.999Z" fill="#D72D35"/>
<path d="M329.622 106.747C329.622 107.264 329.47 107.769 329.185 108.199C328.899 108.629 328.494 108.964 328.019 109.162C327.545 109.36 327.022 109.412 326.518 109.311C326.015 109.21 325.552 108.961 325.189 108.595C324.825 108.23 324.578 107.764 324.478 107.257C324.378 106.75 324.429 106.224 324.626 105.746C324.822 105.268 325.155 104.86 325.582 104.573C326.009 104.286 326.511 104.132 327.025 104.132C327.714 104.134 328.373 104.41 328.86 104.9C329.347 105.39 329.621 106.054 329.622 106.747Z" fill="#D72D35"/>
<path d="M338.483 128.44C338.483 128.44 338.483 128.391 338.483 128.294C338.483 128.197 338.483 128.057 338.483 127.887C338.483 127.51 338.483 126.987 338.483 126.306C338.483 124.914 338.483 122.895 338.441 120.335C338.441 115.204 338.399 107.896 338.368 99.1222L338.513 99.2682H308.035C307.993 99.3046 308.356 98.9398 308.205 99.0979V107.002C308.205 109.586 308.205 112.115 308.205 114.572C308.205 119.496 308.205 124.148 308.205 128.428L308.054 128.276L330.094 128.355L336.315 128.391H337.964H338.386H338.537H338.405H337.994H336.375L330.19 128.428L308.054 128.507H307.903V128.355C307.903 124.099 307.903 119.423 307.903 114.499C307.903 112.067 307.903 109.513 307.903 106.929V99.025C307.746 99.177 308.108 98.8061 308.078 98.8486H338.556H338.616V99.104C338.58 107.92 338.556 115.259 338.537 120.414C338.537 122.956 338.537 124.962 338.501 126.348C338.501 127.017 338.501 127.534 338.501 127.899C338.501 128.063 338.501 128.191 338.501 128.294C338.502 128.343 338.496 128.392 338.483 128.44V128.44Z" fill="#455A64"/>
<path d="M151.642 43.7639V124.762C151.642 128.64 154.765 131.784 158.618 131.784H280.167C284.02 131.784 287.143 128.64 287.143 124.762V43.7639C287.143 39.8855 284.02 36.7415 280.167 36.7415H158.618C154.765 36.7415 151.642 39.8855 151.642 43.7639Z" fill="#455A64"/>
<path d="M160.907 39.739V128.787H274.067V39.739H160.907Z" fill="white"/>
<path d="M280.33 80.6147C281.047 80.6147 281.747 80.8287 282.343 81.2295C282.939 81.6304 283.404 82.2001 283.678 82.8667C283.952 83.5333 284.024 84.2668 283.884 84.9744C283.744 85.6821 283.399 86.3321 282.893 86.8423C282.386 87.3525 281.74 87.6999 281.037 87.8407C280.334 87.9814 279.605 87.9092 278.943 87.6331C278.281 87.3569 277.715 86.8894 277.317 86.2895C276.918 85.6896 276.706 84.9843 276.706 84.2627C276.706 83.2952 277.088 82.3674 277.767 81.6832C278.447 80.9991 279.369 80.6147 280.33 80.6147Z" fill="#263238"/>
<path d="M155.544 70.6922V97.8333C155.544 98.243 155.873 98.5751 156.28 98.5751H156.305C156.712 98.5751 157.042 98.243 157.042 97.8333V70.6922C157.042 70.2825 156.712 69.9504 156.305 69.9504H156.28C155.873 69.9504 155.544 70.2825 155.544 70.6922Z" fill="#263238"/>
<path d="M248.511 46.4269H212.525V48.8528H248.511V46.4269Z" fill="#455A64"/>
<path d="M201.635 88.0931H165.648V90.5191H201.635V88.0931Z" fill="#455A64"/>
<path d="M257.275 55.4496C257.275 55.5408 247.261 55.6077 234.927 55.6077C222.594 55.6077 212.549 55.5408 212.549 55.4496C212.549 55.3584 222.563 55.2915 234.927 55.2915C247.291 55.2915 257.275 55.3645 257.275 55.4496Z" fill="#455A64"/>
<path d="M257.275 60.7452C257.275 60.8304 247.261 60.9033 234.927 60.9033C222.594 60.9033 212.549 60.8304 212.549 60.7452C212.549 60.6601 222.563 60.5872 234.927 60.5872C247.291 60.5872 257.275 60.654 257.275 60.7452Z" fill="#455A64"/>
<path d="M257.275 66.0349C257.275 66.12 247.261 66.193 234.927 66.193C222.594 66.193 212.549 66.12 212.549 66.0349C212.549 65.9498 222.563 65.8768 234.927 65.8768C247.291 65.8768 257.275 65.9498 257.275 66.0349Z" fill="#455A64"/>
<path d="M257.275 71.3245C257.275 71.4157 247.261 71.4825 234.927 71.4825C222.594 71.4825 212.549 71.4157 212.549 71.3245C212.549 71.2333 222.563 71.1664 234.927 71.1664C247.291 71.1664 257.275 71.2393 257.275 71.3245Z" fill="#455A64"/>
<path d="M257.275 76.608C257.275 76.6932 247.261 76.7661 234.927 76.7661C222.594 76.7661 212.549 76.6932 212.549 76.608C212.549 76.5229 222.563 76.45 234.927 76.45C247.291 76.45 257.275 76.529 257.275 76.608Z" fill="#455A64"/>
<path d="M247.46 81.9098C247.46 81.9949 239.638 82.0679 229.993 82.0679C220.347 82.0679 212.525 81.9949 212.525 81.9098C212.525 81.8247 220.341 81.7517 229.993 81.7517C239.645 81.7517 247.46 81.8247 247.46 81.9098Z" fill="#455A64"/>
<path d="M224.75 97.6327C224.75 97.7178 211.607 97.7908 195.395 97.7908C179.184 97.7908 166.041 97.7178 166.041 97.6327C166.041 97.5476 179.184 97.4746 195.395 97.4746C211.607 97.4746 224.75 97.5415 224.75 97.6327Z" fill="#455A64"/>
<path d="M224.75 102.041C224.75 102.132 211.607 102.199 195.395 102.199C179.184 102.199 166.041 102.132 166.041 102.041C166.041 101.949 179.184 101.883 195.395 101.883C211.607 101.883 224.75 101.956 224.75 102.041Z" fill="#455A64"/>
<path d="M224.75 106.455C224.75 106.54 211.607 106.613 195.395 106.613C179.184 106.613 166.041 106.54 166.041 106.455C166.041 106.37 179.184 106.297 195.395 106.297C211.607 106.297 224.75 106.364 224.75 106.455Z" fill="#455A64"/>
<path d="M224.75 110.863C224.75 110.954 211.607 111.021 195.395 111.021C179.184 111.021 166.041 110.954 166.041 110.863C166.041 110.771 179.184 110.705 195.395 110.705C211.607 110.705 224.75 110.778 224.75 110.863Z" fill="#455A64"/>
<path d="M224.75 115.277C224.75 115.362 211.607 115.435 195.395 115.435C179.184 115.435 166.041 115.362 166.041 115.277C166.041 115.192 179.184 115.119 195.395 115.119C211.607 115.119 224.75 115.192 224.75 115.277Z" fill="#455A64"/>
<path d="M202.118 45.1805H166.041V80.3169H202.118V45.1805Z" fill="#D72D35"/>
<path d="M168.838 77.3133L178.822 59.2313L186.982 70.7833L191.941 64.6486L199.321 77.3133H168.838Z" fill="#E0E0E0"/>
<path d="M190.461 55.7111C190.462 56.2284 190.311 56.7345 190.026 57.1652C189.741 57.596 189.336 57.932 188.862 58.1308C188.387 58.3296 187.865 58.3823 187.361 58.2821C186.856 58.1819 186.393 57.9334 186.029 57.568C185.665 57.2026 185.417 56.7368 185.317 56.2295C185.216 55.7222 185.267 55.1962 185.464 54.7181C185.66 54.24 185.993 53.8314 186.42 53.5438C186.847 53.2563 187.35 53.1028 187.864 53.1028C188.551 53.1028 189.211 53.3774 189.698 53.8664C190.185 54.3554 190.459 55.0188 190.461 55.7111V55.7111Z" fill="#E0E0E0"/>
<path d="M199.322 77.4106C199.322 77.4106 199.322 77.3559 199.322 77.2647C199.322 77.1735 199.322 77.0275 199.322 76.8573C199.322 76.4803 199.322 75.9514 199.322 75.2765C199.322 73.8781 199.322 71.8656 199.285 69.3059C199.285 64.1744 199.243 56.8663 199.213 48.0928L199.358 48.2387H168.88C168.838 48.2752 169.2 47.9165 169.049 48.0746V52.0448C169.049 53.3581 169.049 54.6653 169.049 55.9543V63.5239C169.049 68.4487 169.049 73.0999 169.049 77.3802L168.898 77.2282L190.938 77.3011L197.153 77.3437H198.802H199.231H199.382H199.249H198.838H197.22L191.035 77.3863L168.898 77.4592H168.747V77.3072C168.747 73.0512 168.747 68.3757 168.747 63.4509C168.747 60.9905 168.747 58.4673 168.747 55.8813V47.9773C168.59 48.1293 168.952 47.7584 168.922 47.7949H199.4H199.551V47.9469C199.521 56.7568 199.497 64.1015 199.479 69.2573C199.479 71.7987 199.448 73.8051 199.442 75.1914C199.442 75.8541 199.442 76.4074 199.442 76.7418C199.442 76.9059 199.442 77.0336 199.442 77.137C199.438 77.2403 199.395 77.3381 199.322 77.4106Z" fill="#455A64"/>
<path d="M258.381 92.7504H232.85V117.618H258.381V92.7504Z" fill="#D72D35"/>
<path d="M234.831 115.49L241.891 102.697L247.672 110.875L251.181 106.528L256.399 115.49H234.831Z" fill="#E0E0E0"/>
<path d="M250.13 100.204C250.13 100.565 250.024 100.918 249.825 101.218C249.626 101.518 249.343 101.752 249.011 101.89C248.68 102.028 248.316 102.064 247.964 101.993C247.613 101.923 247.29 101.749 247.037 101.494C246.783 101.239 246.611 100.914 246.541 100.56C246.471 100.207 246.507 99.8398 246.644 99.5065C246.781 99.1732 247.013 98.8883 247.311 98.6879C247.609 98.4875 247.96 98.3805 248.318 98.3805C248.799 98.3805 249.259 98.5727 249.599 98.9147C249.939 99.2568 250.13 99.7207 250.13 100.204V100.204Z" fill="#E0E0E0"/>
<path d="M256.4 115.556C256.4 115.556 256.4 115.52 256.4 115.459C256.4 115.398 256.4 115.289 256.4 115.167C256.4 114.9 256.4 114.559 256.4 114.049C256.4 113.064 256.4 111.617 256.4 109.793C256.4 106.145 256.369 100.989 256.345 94.7811L256.448 94.8844H234.879C234.849 94.8844 235.109 94.6534 235 94.7689V100.35C235 102.174 235 103.96 235 105.707C235 109.191 235 112.48 235 115.508L234.897 115.404L250.432 115.52H254.829H256.001H256.406C256.406 115.52 256.375 115.52 256.315 115.52H256.025H254.877L250.498 115.55L234.837 115.605H234.728V115.496C234.728 112.456 234.728 109.178 234.728 105.695V94.8479C234.619 94.9513 234.879 94.6899 234.855 94.7203H256.424H256.532V94.8236C256.532 101.062 256.49 106.254 256.478 109.902C256.478 111.726 256.478 113.124 256.448 114.103C256.448 114.578 256.448 114.942 256.448 115.204C256.448 115.319 256.448 115.411 256.448 115.483C256.448 115.556 256.406 115.563 256.4 115.556Z" fill="#455A64"/>
<path d="M276.76 141.39H104.953C100.092 141.39 96.1523 145.356 96.1523 150.249V258.613C96.1523 263.505 100.092 267.471 104.953 267.471H276.76C281.621 267.471 285.561 263.505 285.561 258.613V150.249C285.561 145.356 281.621 141.39 276.76 141.39Z" fill="#263238"/>
<path d="M88.2338 258.151H293.443V258.363C293.443 261.234 292.31 263.986 290.294 266.016C288.278 268.046 285.543 269.186 282.692 269.186H98.985C96.1336 269.186 93.399 268.046 91.3828 266.016C89.3665 263.986 88.2338 261.234 88.2338 258.363V258.151V258.151Z" fill="#263238"/>
<path d="M279.95 146.4H101.238V252.873H279.95V146.4Z" fill="#E0E0E0"/>
<path d="M172.184 258.151L174.733 262.23H210.562L212.93 258.151H172.184Z" fill="#455A64"/>
<path d="M271.735 153.496H107.199V252.837H271.735V153.496Z" fill="#FAFAFA"/>
<path d="M114.224 158.39C114.225 158.666 114.145 158.935 113.994 159.165C113.843 159.395 113.627 159.574 113.374 159.681C113.122 159.787 112.843 159.815 112.575 159.762C112.306 159.709 112.059 159.577 111.865 159.383C111.671 159.188 111.539 158.94 111.485 158.67C111.431 158.4 111.458 158.119 111.562 157.865C111.667 157.61 111.844 157.392 112.072 157.239C112.299 157.086 112.567 157.004 112.841 157.004C113.207 157.004 113.557 157.15 113.817 157.409C114.076 157.669 114.222 158.022 114.224 158.39V158.39Z" fill="#455A64"/>
<path d="M119.853 158.39C119.854 158.666 119.774 158.936 119.623 159.166C119.471 159.396 119.255 159.575 119.002 159.681C118.749 159.787 118.471 159.815 118.202 159.762C117.933 159.708 117.686 159.576 117.492 159.381C117.298 159.186 117.166 158.937 117.113 158.666C117.06 158.396 117.088 158.115 117.193 157.86C117.299 157.606 117.477 157.388 117.705 157.236C117.934 157.083 118.202 157.003 118.476 157.004C118.841 157.004 119.192 157.15 119.45 157.41C119.708 157.67 119.853 158.022 119.853 158.39V158.39Z" fill="#455A64"/>
<path d="M125.489 158.39C125.49 158.666 125.41 158.935 125.258 159.165C125.107 159.395 124.892 159.574 124.639 159.681C124.386 159.787 124.108 159.815 123.839 159.762C123.571 159.709 123.324 159.577 123.129 159.383C122.935 159.188 122.803 158.94 122.749 158.67C122.695 158.4 122.722 158.119 122.827 157.865C122.931 157.61 123.109 157.392 123.336 157.239C123.564 157.086 123.832 157.004 124.105 157.004C124.287 157.003 124.466 157.038 124.634 157.108C124.802 157.177 124.955 157.279 125.083 157.408C125.212 157.536 125.314 157.69 125.383 157.858C125.453 158.027 125.489 158.207 125.489 158.39V158.39Z" fill="#455A64"/>
<path d="M271.735 164.47C271.735 164.561 234.891 164.628 189.47 164.628C144.05 164.628 107.199 164.561 107.199 164.47C107.199 164.379 144.043 164.312 189.47 164.312C234.897 164.312 271.735 164.385 271.735 164.47Z" fill="#455A64"/>
<path d="M285.561 258.236H96.1523V258.844H285.561V258.236Z" fill="#455A64"/>
<path d="M156.673 212.739H120.687V215.165H156.673V212.739Z" fill="#455A64"/>
<path d="M203.157 179.092H167.171V181.518H203.157V179.092Z" fill="#455A64"/>
<path d="M256.683 188.121C256.683 188.206 236.643 188.279 211.927 188.279C187.211 188.279 167.171 188.206 167.171 188.121C167.171 188.036 187.205 187.957 211.927 187.957C236.649 187.957 256.683 188.03 256.683 188.121Z" fill="#455A64"/>
<path d="M256.683 193.411C256.683 193.496 236.643 193.569 211.927 193.569C187.211 193.569 167.171 193.496 167.171 193.411C167.171 193.326 187.205 193.253 211.927 193.253C236.649 193.253 256.683 193.344 256.683 193.411Z" fill="#455A64"/>
<path d="M256.683 198.7C256.683 198.792 236.643 198.859 211.927 198.859C187.211 198.859 167.171 198.792 167.171 198.7C167.171 198.609 187.205 198.542 211.927 198.542C236.649 198.542 256.683 198.615 256.683 198.7Z" fill="#455A64"/>
<path d="M256.683 203.996C256.683 204.081 236.643 204.154 211.927 204.154C187.211 204.154 167.171 204.081 167.171 203.996C167.171 203.911 187.205 203.832 211.927 203.832C236.649 203.832 256.683 203.905 256.683 203.996Z" fill="#455A64"/>
<path d="M256.683 209.286C256.683 209.371 236.643 209.444 211.927 209.444C187.211 209.444 167.171 209.371 167.171 209.286C167.171 209.201 187.205 209.128 211.927 209.128C236.649 209.128 256.683 209.195 256.683 209.286Z" fill="#455A64"/>
<path d="M202.112 214.575C202.112 214.66 194.29 214.733 184.644 214.733C174.998 214.733 167.171 214.66 167.171 214.575C167.171 214.49 175.023 214.417 184.644 214.417C194.266 214.417 202.112 214.49 202.112 214.575Z" fill="#455A64"/>
<path d="M256.025 224.844C256.025 224.936 242.852 225.003 226.61 225.003C210.369 225.003 197.195 224.936 197.195 224.844C197.195 224.753 210.363 224.686 226.61 224.686C242.858 224.686 256.025 224.759 256.025 224.844Z" fill="#455A64"/>
<path d="M256.025 230.462C256.025 230.548 242.852 230.62 226.61 230.62C210.369 230.62 197.195 230.548 197.195 230.462C197.195 230.377 210.363 230.304 226.61 230.304C242.858 230.304 256.025 230.377 256.025 230.462Z" fill="#455A64"/>
<path d="M256.025 236.08C256.025 236.165 242.852 236.238 226.61 236.238C210.369 236.238 197.195 236.165 197.195 236.08C197.195 235.995 210.363 235.922 226.61 235.922C242.858 235.922 256.025 235.989 256.025 236.08Z" fill="#455A64"/>
<path d="M256.025 241.698C256.025 241.783 242.852 241.856 226.61 241.856C210.369 241.856 197.195 241.783 197.195 241.698C197.195 241.613 210.363 241.54 226.61 241.54C242.858 241.54 256.025 241.607 256.025 241.698Z" fill="#455A64"/>
<path d="M156.764 224.309C156.764 224.395 148.912 224.467 139.248 224.467C129.584 224.467 121.732 224.395 121.732 224.309C121.732 224.224 129.584 224.151 139.248 224.151C148.912 224.151 156.764 224.218 156.764 224.309Z" fill="#455A64"/>
<path d="M156.764 228.717C156.764 228.809 148.912 228.875 139.248 228.875C129.584 228.875 121.732 228.809 121.732 228.717C121.732 228.626 129.584 228.559 139.248 228.559C148.912 228.559 156.764 228.608 156.764 228.717Z" fill="#455A64"/>
<path d="M156.764 233.131C156.764 233.217 148.912 233.29 139.248 233.29C129.584 233.29 121.732 233.217 121.732 233.131C121.732 233.046 129.584 232.973 139.248 232.973C148.912 232.973 156.764 233.046 156.764 233.131Z" fill="#455A64"/>
<path d="M156.764 237.54C156.764 237.631 148.912 237.698 139.248 237.698C129.584 237.698 121.732 237.631 121.732 237.54C121.732 237.448 129.584 237.381 139.248 237.381C148.912 237.381 156.764 237.454 156.764 237.54Z" fill="#455A64"/>
<path d="M156.764 241.984C156.764 242.069 148.912 242.142 139.248 242.142C129.584 242.142 121.732 242.069 121.732 241.984C121.732 241.899 129.584 241.826 139.248 241.826C148.912 241.826 156.764 241.868 156.764 241.984Z" fill="#455A64"/>
<path d="M156.764 171.176H120.687V206.313H156.764V171.176Z" fill="#E0E0E0"/>
<path d="M123.483 203.303L133.467 185.221L141.627 196.779L146.592 190.644L153.967 203.303H123.483Z" fill="#D72D35"/>
<path d="M145.106 181.707C145.106 182.224 144.954 182.729 144.669 183.159C144.383 183.589 143.978 183.924 143.503 184.122C143.029 184.32 142.506 184.372 142.003 184.271C141.499 184.17 141.036 183.921 140.673 183.555C140.31 183.19 140.062 182.724 139.962 182.217C139.862 181.71 139.913 181.184 140.11 180.706C140.306 180.229 140.639 179.82 141.066 179.533C141.493 179.246 141.996 179.092 142.509 179.092C143.198 179.092 143.859 179.368 144.346 179.858C144.833 180.348 145.106 181.013 145.106 181.707V181.707Z" fill="#D72D35"/>
<path d="M153.967 203.4C153.965 203.354 153.965 203.307 153.967 203.26C153.967 203.151 153.967 203.017 153.967 202.847C153.967 202.476 153.967 201.947 153.967 201.266C153.967 199.874 153.967 197.861 153.925 195.302C153.925 190.17 153.883 182.862 153.852 174.082L153.997 174.234H123.519C123.477 174.271 123.84 173.906 123.689 174.064V181.968C123.689 184.546 123.689 187.075 123.689 189.538C123.689 194.457 123.689 199.108 123.689 203.388L123.538 203.242L145.578 203.315L151.799 203.358H153.448H154.021C154.021 203.358 153.979 203.358 153.889 203.358H153.478H151.859L145.674 203.4L123.538 203.473H123.393V203.321C123.393 199.065 123.393 194.39 123.393 189.471C123.393 187.009 123.393 184.479 123.393 181.901V173.997L123.568 173.821H154.046H154.197V173.967C154.197 182.783 154.136 190.122 154.118 195.277C154.118 197.825 154.118 199.825 154.082 201.211C154.082 201.88 154.082 202.397 154.082 202.768C154.082 202.932 154.082 203.06 154.082 203.157C154.082 203.254 153.973 203.406 153.967 203.4Z" fill="#455A64"/>
<path d="M192.678 222.163H167.146V247.03H192.678V222.163Z" fill="#E0E0E0"/>
<path d="M169.128 244.902L176.188 232.11L181.969 240.288L185.478 235.941L190.702 244.902H169.128Z" fill="#D72D35"/>
<path d="M184.427 229.617C184.427 229.978 184.321 230.331 184.121 230.631C183.922 230.931 183.639 231.164 183.308 231.302C182.977 231.44 182.613 231.477 182.261 231.406C181.91 231.336 181.587 231.162 181.334 230.907C181.08 230.652 180.908 230.327 180.838 229.973C180.768 229.619 180.804 229.252 180.941 228.919C181.078 228.586 181.31 228.301 181.608 228.101C181.906 227.9 182.256 227.793 182.615 227.793C183.095 227.793 183.556 227.985 183.896 228.327C184.236 228.67 184.427 229.133 184.427 229.617Z" fill="#D72D35"/>
<path d="M190.702 244.975C190.7 244.941 190.7 244.906 190.702 244.872C190.702 244.799 190.702 244.702 190.702 244.58C190.702 244.319 190.702 243.972 190.702 243.461C190.702 242.476 190.702 241.029 190.672 239.236C190.672 235.588 190.672 230.432 190.624 224.224L190.727 224.328H169.152C169.152 224.328 169.381 224.097 169.272 224.212V235.156C169.272 238.64 169.272 241.929 169.272 244.963L169.164 244.854L184.765 244.908L189.162 244.939H190.328H189.18H184.807L169.14 244.994H169.037V244.89C169.037 241.85 169.037 238.567 169.037 235.083C169.037 233.344 169.037 231.551 169.037 229.727V224.157C168.928 224.261 169.182 223.999 169.158 224.03H190.733H190.835V224.133C190.835 230.371 190.793 235.563 190.781 239.218C190.781 241.042 190.781 242.434 190.781 243.413C190.781 243.887 190.781 244.252 190.781 244.513C190.781 244.629 190.781 244.72 190.781 244.793C190.767 244.858 190.74 244.92 190.702 244.975Z" fill="#455A64"/>
<path d="M405.871 258.4L399.831 257.676L398.412 269.07L407.248 270.22L407.381 269.52C407.949 266.395 410.033 253.603 409.658 251.42C409.242 248.988 405.871 258.4 405.871 258.4Z" fill="#D72D35"/>
<path d="M409.133 250.605C409.242 250.605 408.825 254.898 408.203 260.157C407.581 265.416 406.995 269.672 406.886 269.66C406.777 269.648 407.2 265.404 407.816 260.109C408.432 254.813 409.024 250.593 409.133 250.605Z" fill="#263238"/>
<path d="M407.128 257.865C407.067 257.95 406.753 257.828 406.463 257.549C406.173 257.269 406.053 256.941 406.137 256.886C406.222 256.831 406.475 257.008 406.741 257.269C407.007 257.531 407.194 257.792 407.128 257.865Z" fill="#263238"/>
<path d="M407.611 257.184C407.563 257.281 407.206 257.184 406.856 256.916C406.506 256.649 406.312 256.308 406.391 256.248C406.469 256.187 406.765 256.351 407.092 256.6C407.418 256.85 407.665 257.087 407.611 257.184Z" fill="#263238"/>
<path d="M407.255 266.219C407.255 266.267 407.104 266.419 406.802 266.638C406.418 266.901 406.06 267.201 405.732 267.532C405.423 267.862 405.199 268.262 405.08 268.699C404.996 269.04 405.02 269.265 404.959 269.277C404.899 269.289 404.79 269.064 404.808 268.669C404.851 268.15 405.063 267.661 405.412 267.277C405.758 266.914 406.168 266.619 406.62 266.407C407.001 266.237 407.224 266.17 407.255 266.219Z" fill="#263238"/>
<path d="M405.998 257.695C406.095 257.652 406.288 257.877 406.361 258.212C406.433 258.546 406.361 258.82 406.252 258.82C406.143 258.82 406.047 258.576 405.98 258.278C405.914 257.98 405.896 257.737 405.998 257.695Z" fill="#263238"/>
<path d="M405.394 257.792C405.497 257.792 405.551 258.108 405.515 258.497C405.479 258.886 405.352 259.178 405.249 259.154C405.147 259.13 405.086 258.82 405.129 258.455C405.171 258.09 405.286 257.792 405.394 257.792Z" fill="#263238"/>
<path d="M402.187 269.976L368.707 266.559L299.284 268.122L317.742 253.141L364.075 250.903L404.585 256.521L402.187 269.976Z" fill="#263238"/>
<path d="M345.598 260.619C345.598 260.71 339.081 260.777 331.042 260.777C323.003 260.777 316.492 260.71 316.492 260.619C316.492 260.528 323.003 260.461 331.042 260.461C339.081 260.461 345.598 260.534 345.598 260.619Z" fill="#455A64"/>
<path d="M342.361 251.949L344.741 267.021H349.307L345.834 251.785L342.361 251.949Z" fill="black"/>
<path d="M360.034 267.222L359.357 261.142L348.008 262.358L348.884 271.259H349.591C352.744 271.101 365.591 270.238 367.614 269.374C369.897 268.383 360.034 267.222 360.034 267.222Z" fill="#D72D35"/>
<path d="M367.85 268.736C367.85 268.845 363.622 269.411 358.397 270.001C353.172 270.59 348.92 270.98 348.908 270.87C348.896 270.761 353.136 270.201 358.355 269.612C363.573 269.022 367.838 268.651 367.85 268.736Z" fill="#263238"/>
<path d="M360.36 268.444C360.257 268.402 360.306 268.067 360.511 267.721C360.716 267.374 361 267.179 361.079 267.246C361.157 267.313 361.037 267.605 360.849 267.921C360.662 268.237 360.469 268.487 360.36 268.444Z" fill="#263238"/>
<path d="M361.139 268.736C361.037 268.736 361.049 268.341 361.23 267.933C361.411 267.526 361.677 267.271 361.767 267.325C361.858 267.38 361.767 267.709 361.586 268.085C361.405 268.462 361.242 268.791 361.139 268.736Z" fill="#263238"/>
<path d="M352.315 270.463C352.278 270.499 352.085 270.359 351.807 270.116C351.466 269.801 351.096 269.518 350.702 269.271C350.312 269.043 349.872 268.915 349.422 268.9C349.077 268.9 348.86 268.967 348.818 268.9C348.775 268.833 348.981 268.687 349.379 268.614C349.898 268.541 350.427 268.648 350.877 268.918C351.306 269.178 351.683 269.516 351.989 269.916C352.242 270.226 352.357 270.426 352.315 270.463Z" fill="#263238"/>
<path d="M360.275 267.295C360.342 267.38 360.167 267.617 359.859 267.769C359.551 267.921 359.255 267.909 359.255 267.806C359.255 267.702 359.442 267.55 359.714 267.417C359.986 267.283 360.215 267.204 360.275 267.295Z" fill="#263238"/>
<path d="M360.034 266.723C360.034 266.833 359.762 266.955 359.382 267.003C359.001 267.052 358.687 267.003 358.681 266.894C358.675 266.784 358.971 266.663 359.333 266.614C359.696 266.565 360.01 266.62 360.034 266.723Z" fill="#263238"/>
<path d="M293.63 197.673L303.294 197.497C303.427 196.372 303.614 191.988 303.614 191.988C303.614 191.988 307.661 191.605 307.957 187.58C308.253 183.555 308.126 174.241 308.126 174.241C305.908 173.114 303.432 172.603 300.953 172.761C298.474 172.919 296.081 173.741 294.023 175.14L293.419 175.566L293.63 197.673Z" fill="#B78876"/>
<path d="M306.791 181.117C306.686 181.004 306.627 180.855 306.627 180.701C306.627 180.546 306.686 180.397 306.791 180.284C306.874 180.195 306.982 180.134 307.1 180.107C307.218 180.081 307.341 180.091 307.454 180.135C307.566 180.18 307.663 180.258 307.731 180.359C307.799 180.46 307.835 180.579 307.835 180.701C307.835 180.823 307.799 180.942 307.731 181.042C307.663 181.143 307.566 181.221 307.454 181.266C307.341 181.311 307.218 181.321 307.1 181.294C306.982 181.268 306.874 181.206 306.791 181.117Z" fill="#263238"/>
<path d="M307.812 180.254C307.746 180.321 307.371 179.992 306.821 179.956C306.272 179.919 305.849 180.181 305.795 180.108C305.74 180.035 305.837 179.95 306.018 179.828C306.265 179.672 306.555 179.6 306.846 179.621C307.135 179.64 307.411 179.753 307.631 179.944C307.812 180.096 307.854 180.223 307.812 180.254Z" fill="#263238"/>
<path d="M301.434 180.345C301.52 180.448 301.57 180.577 301.576 180.712C301.582 180.846 301.543 180.979 301.465 181.089C301.388 181.199 301.276 181.28 301.148 181.319C301.02 181.358 300.882 181.354 300.757 181.306C300.671 181.273 300.594 181.22 300.531 181.152C300.468 181.084 300.421 181.003 300.395 180.914C300.368 180.825 300.362 180.732 300.376 180.64C300.391 180.549 300.427 180.462 300.48 180.386C300.533 180.31 300.603 180.248 300.684 180.203C300.765 180.159 300.855 180.134 300.947 180.13C301.039 180.126 301.131 180.143 301.215 180.181C301.299 180.218 301.374 180.274 301.434 180.345Z" fill="#263238"/>
<path d="M301.772 180.369C301.706 180.436 301.331 180.108 300.775 180.071C300.22 180.035 299.809 180.296 299.749 180.223C299.688 180.15 299.791 180.065 299.978 179.944C300.224 179.787 300.514 179.715 300.804 179.737C301.095 179.759 301.37 179.874 301.591 180.065C301.772 180.211 301.826 180.345 301.772 180.369Z" fill="#263238"/>
<path d="M303.729 185.093C304.019 184.998 304.324 184.952 304.629 184.96C304.774 184.96 304.895 184.923 304.907 184.85C304.921 184.704 304.894 184.556 304.828 184.425L304.46 183.269C304.105 182.284 303.85 181.266 303.699 180.229C304.152 181.169 304.509 182.153 304.762 183.166C304.883 183.567 304.991 183.95 305.106 184.327C305.189 184.519 305.203 184.734 305.148 184.935C305.123 184.99 305.087 185.038 305.041 185.076C304.995 185.114 304.941 185.14 304.883 185.154C304.8 185.166 304.717 185.166 304.635 185.154C304.332 185.185 304.026 185.164 303.729 185.093V185.093Z" fill="#263238"/>
<path d="M301.899 185.598C301.343 185.215 303.427 186.54 304.556 186.553C304.35 186.833 304.057 187.035 303.722 187.127C303.388 187.218 303.033 187.194 302.714 187.057C301.543 186.54 301.899 185.598 301.899 185.598Z" fill="white"/>
<path d="M303.638 191.927C301.785 191.845 299.998 191.211 298.504 190.103C298.504 190.103 299.561 193.083 303.584 192.967L303.638 191.927Z" fill="#A36957"/>
<path d="M308.416 172.788C308.646 172.78 308.871 172.719 309.073 172.61C309.276 172.502 309.452 172.347 309.586 172.16C309.72 171.972 309.81 171.756 309.849 171.528C309.887 171.3 309.873 171.066 309.808 170.844C309.743 170.622 309.628 170.418 309.472 170.248C309.316 170.078 309.124 169.946 308.909 169.863C308.695 169.779 308.465 169.746 308.236 169.766C308.007 169.786 307.785 169.859 307.589 169.979C308.068 169.581 308.459 169.086 308.736 168.525C308.869 168.244 308.913 167.928 308.862 167.62C308.812 167.313 308.669 167.028 308.452 166.805C308.2 166.63 307.906 166.528 307.601 166.509C307.295 166.49 306.991 166.554 306.719 166.695C305.867 167.066 305.197 167.79 304.303 168.094C303.409 168.398 302.455 168.246 301.518 168.288C300.475 168.308 299.465 168.659 298.631 169.292C298.221 169.611 297.891 170.022 297.668 170.493C297.444 170.964 297.334 171.481 297.345 172.003C296.034 171.845 294.584 171.827 293.552 172.648C293.136 173.02 292.808 173.48 292.589 173.995C292.371 174.51 292.269 175.067 292.289 175.627C292.39 176.744 292.655 177.84 293.074 178.88V178.88C293.148 179.184 293.283 179.47 293.473 179.719L293.962 182.613L295.744 182.576L295.629 176.557C295.629 176.557 295.448 174.016 297.623 174.241C299.797 174.466 302.738 176.928 306.96 176.302C307.651 176.265 308.324 176.072 308.929 175.736C309.223 175.55 309.462 175.289 309.621 174.979C309.78 174.669 309.854 174.322 309.835 173.973C309.799 173.628 309.63 173.312 309.365 173.09C309.1 172.869 308.759 172.76 308.416 172.788V172.788Z" fill="#263238"/>
<path d="M294.186 179.141C294.095 179.111 291.208 178.734 291.48 182.181C291.752 185.628 295.104 184.2 295.104 184.102C295.104 184.005 294.186 179.141 294.186 179.141Z" fill="#B78876"/>
<path d="M293.968 182.965C293.968 182.965 293.908 183.008 293.811 183.063C293.676 183.135 293.518 183.152 293.37 183.111C293.14 182.988 292.946 182.806 292.808 182.582C292.67 182.359 292.593 182.103 292.585 181.841C292.551 181.547 292.584 181.25 292.682 180.971C292.705 180.861 292.754 180.757 292.826 180.671C292.897 180.584 292.989 180.516 293.093 180.473C293.16 180.449 293.233 180.451 293.299 180.476C293.365 180.502 293.42 180.55 293.455 180.612C293.509 180.704 293.491 180.77 293.509 180.777C293.527 180.783 293.582 180.716 293.539 180.576C293.516 180.491 293.462 180.417 293.388 180.369C293.34 180.337 293.286 180.315 293.228 180.305C293.171 180.295 293.113 180.296 293.056 180.308C292.912 180.348 292.78 180.425 292.674 180.531C292.568 180.638 292.491 180.771 292.452 180.916C292.329 181.225 292.285 181.559 292.325 181.889C292.332 182.195 292.428 182.493 292.602 182.744C292.777 182.995 293.021 183.188 293.304 183.3C293.398 183.32 293.495 183.318 293.588 183.295C293.681 183.272 293.768 183.228 293.841 183.166C293.968 183.044 293.98 182.971 293.968 182.965Z" fill="#A36957"/>
<path d="M285.79 257.792C287.602 260.51 298.589 277.157 311.708 265.052C328.42 249.645 341.636 236.147 341.636 236.147L346.601 266.638L362.16 265.787C362.16 265.787 356.12 220.388 352.266 216.26C347.984 211.651 344.046 212.04 310.415 238.756L285.79 257.792Z" fill="#455A64"/>
<path d="M341.443 206.088L355.975 195.411L356.688 196.56L342.252 207.364L341.443 206.088Z" fill="#263238"/>
<path d="M345.037 205.759C345.037 205.759 346.981 200.652 347.453 199.564C347.924 198.476 348.63 196.579 348.908 196.524C349.186 196.469 350.201 196.645 348.908 199.892C347.616 203.139 350.479 201.157 350.479 201.157L353.275 199.138C353.275 199.138 355.486 205.79 354.229 207.796C353.242 209.294 352.133 210.708 350.914 212.022L345.037 205.759Z" fill="#B78876"/>
<path d="M345.2 205.164C344.91 204.501 326.427 220.929 322.749 221.488L311.974 207.364C311.974 207.364 309.739 203.789 304.937 197.673C301.832 193.727 293.28 194.548 291.045 199.357C287.228 207.529 287.179 216.612 285.144 234.287L284.256 246.24C284.065 248.784 284.103 251.34 284.371 253.876C284.697 256.837 285.361 259.956 286.726 259.513L311.376 239.005L312.167 229.69C317.349 234.98 318.962 236.086 321.656 235.661C328.439 234.603 352.182 213.11 352.182 213.11C352.182 213.11 345.484 205.832 345.2 205.164Z" fill="#D72D35"/>
<path d="M348.999 216.095C348.518 215.804 348.073 215.455 347.676 215.056C346.666 214.148 345.719 213.171 344.843 212.131C343.962 211.096 343.154 209.999 342.427 208.848C342.104 208.384 341.83 207.887 341.612 207.365C341.978 207.79 342.311 208.244 342.608 208.72C343.212 209.565 344.058 210.721 345.079 211.925C346.1 213.128 347.09 214.162 347.827 214.892C348.245 215.265 348.637 215.667 348.999 216.095V216.095Z" fill="#263238"/>
<path d="M321.704 227.088C321.714 226.136 321.827 225.188 322.042 224.261C322.161 223.316 322.379 222.386 322.695 221.488C322.685 222.44 322.572 223.388 322.356 224.315C322.239 225.261 322.02 226.19 321.704 227.088V227.088Z" fill="#263238"/>
<path d="M324.06 226.504C323.686 225.731 323.41 224.914 323.238 224.072C322.971 223.258 322.799 222.415 322.725 221.561C323.098 222.334 323.374 223.151 323.546 223.993C323.812 224.808 323.984 225.65 324.06 226.504V226.504Z" fill="#263238"/>
<path d="M297.375 209.845C297.596 210.09 297.798 210.353 297.979 210.629L299.586 212.83C300.945 214.685 302.841 217.238 304.961 220.029L310.427 227.167L312.076 229.338C312.299 229.594 312.501 229.869 312.68 230.158C312.438 229.927 312.214 229.677 312.01 229.411C311.593 228.918 311.007 228.195 310.282 227.307C308.839 225.513 306.864 223.02 304.744 220.224C302.624 217.427 300.751 214.849 299.441 212.958C298.782 212.016 298.233 211.243 297.906 210.702C297.707 210.431 297.529 210.145 297.375 209.845Z" fill="#263238"/>
<path d="M294.222 221.859C293.583 221.495 292.999 221.04 292.489 220.509C291.908 220.053 291.394 219.516 290.96 218.917C291.603 219.281 292.189 219.738 292.7 220.272C293.282 220.723 293.795 221.258 294.222 221.859V221.859Z" fill="#263238"/>
<path d="M292.108 228.711C291.478 230.025 290.664 231.241 289.692 232.323C289.958 231.64 290.322 231.001 290.773 230.426C291.134 229.793 291.584 229.216 292.108 228.711V228.711Z" fill="#263238"/>
<path d="M295.08 238.166C295.013 238.221 294.476 237.673 293.872 236.95C293.465 236.537 293.133 236.056 292.893 235.527C292.96 235.472 293.497 236.02 294.101 236.743C294.509 237.155 294.841 237.637 295.08 238.166V238.166Z" fill="#263238"/>
<path d="M289.33 244.228C288.949 244.677 288.49 245.054 287.977 245.34C287.521 245.712 287.004 246 286.449 246.191C286.83 245.742 287.288 245.365 287.802 245.079C288.257 244.707 288.775 244.419 289.33 244.228V244.228Z" fill="#263238"/>
<path d="M297.369 245.833C296.729 245.552 296.174 245.105 295.762 244.538C295.272 244.03 294.924 243.4 294.754 242.714C294.838 242.671 295.279 243.474 295.998 244.319C296.717 245.164 297.423 245.754 297.369 245.833Z" fill="#263238"/>
<path d="M304.864 240.105C304.423 240.687 303.903 241.202 303.318 241.637C302.798 242.149 302.208 242.583 301.567 242.926C302.008 242.345 302.528 241.829 303.113 241.394C303.632 240.881 304.222 240.447 304.864 240.105V240.105Z" fill="#263238"/>
<path d="M289.438 251.165C288.406 250.688 287.586 249.843 287.137 248.794C287.21 248.745 287.663 249.329 288.297 249.973C288.931 250.618 289.493 251.104 289.438 251.165Z" fill="#263238"/>
<path d="M306.199 234.688C305.161 235.286 303.965 235.545 302.775 235.43C303.903 235.126 305.046 234.878 306.199 234.688V234.688Z" fill="#263238"/>
<path d="M300.618 228.298C300.493 229.039 300.291 229.764 300.014 230.462C299.818 231.164 299.582 231.854 299.308 232.53H299.241C299.241 232.493 299.278 232.481 299.29 232.481C299.302 232.481 299.29 232.481 299.29 232.548H299.223C299.294 231.818 299.452 231.099 299.694 230.408C299.879 229.656 300.191 228.942 300.618 228.298V228.298Z" fill="#263238"/>
<path d="M302.98 224.243C302.324 223.967 301.714 223.594 301.168 223.136C300.569 222.764 300.029 222.303 299.567 221.768C300.211 222.05 300.811 222.422 301.349 222.875C301.958 223.246 302.508 223.707 302.98 224.243V224.243Z" fill="#263238"/>
<path d="M298.148 215.305C297.965 215.908 297.661 216.467 297.254 216.947C296.927 217.484 296.496 217.949 295.986 218.315C296.256 217.754 296.597 217.231 297 216.758C297.316 216.224 297.702 215.735 298.148 215.305Z" fill="#263238"/>
<path d="M290.791 214.089C290.69 213.406 290.69 212.711 290.791 212.028C290.799 211.338 290.909 210.654 291.117 209.997C291.226 210.678 291.226 211.371 291.117 212.052C291.116 212.744 291.006 213.431 290.791 214.089V214.089Z" fill="#263238"/>
<path d="M287.922 227.489C287.758 226.762 287.693 226.015 287.729 225.27C287.668 224.528 287.708 223.782 287.85 223.051C288.083 224.519 288.108 226.014 287.922 227.489Z" fill="#263238"/>
<path d="M287.524 240.342C287.25 239.948 287.066 239.497 286.986 239.023C286.808 238.577 286.725 238.099 286.744 237.619C287.205 238.456 287.472 239.387 287.524 240.342V240.342Z" fill="#263238"/>
<path d="M297.695 204.063C297.215 204.617 296.695 205.133 296.137 205.607C295.654 206.159 295.126 206.669 294.56 207.133C294.888 206.462 295.351 205.865 295.919 205.382C296.413 204.822 297.018 204.373 297.695 204.063V204.063Z" fill="#263238"/>
<path d="M293.376 202.61C293.246 201.947 293.221 201.268 293.304 200.597C293.28 199.922 293.361 199.247 293.546 198.597C293.673 199.26 293.697 199.939 293.618 200.61C293.639 201.285 293.557 201.959 293.376 202.61V202.61Z" fill="#263238"/>
<path d="M303.958 201.163C302.823 200.472 301.726 199.719 300.673 198.907C301.944 199.359 303.076 200.137 303.958 201.163Z" fill="#263238"/>
<path d="M301.657 208.751C301.49 208.055 301.423 207.338 301.458 206.623C301.393 205.91 301.431 205.191 301.573 204.489C301.81 205.895 301.838 207.33 301.657 208.745V208.751Z" fill="#263238"/>
<path d="M307.854 213.189C306.635 212.945 305.427 212.653 304.23 212.314C305.498 212.236 306.76 212.541 307.854 213.189V213.189Z" fill="#263238"/>
<path d="M308.277 208.666C308.064 207.482 308.064 206.269 308.277 205.084C308.436 205.666 308.495 206.27 308.452 206.872C308.5 207.476 308.44 208.083 308.277 208.666V208.666Z" fill="#263238"/>
<path d="M313 216.259C312.808 215.524 312.72 214.764 312.741 214.004C312.658 213.249 312.678 212.486 312.801 211.736C313.072 213.228 313.14 214.75 313 216.259V216.259Z" fill="#263238"/>
<path d="M309.37 218.825C309.304 218.886 308.815 218.436 308.277 217.828C307.74 217.22 307.353 216.673 307.419 216.612C307.486 216.551 307.975 217.001 308.513 217.615C309.05 218.229 309.437 218.77 309.37 218.825Z" fill="#263238"/>
<path d="M313.961 222.327C313.391 222.523 312.793 222.621 312.191 222.619C311.592 222.725 310.978 222.725 310.379 222.619C310.945 222.417 311.542 222.318 312.143 222.327C312.744 222.214 313.36 222.214 313.961 222.327V222.327Z" fill="#263238"/>
<path d="M317.416 224.103C317.16 222.783 317.109 221.431 317.265 220.096C317.528 221.415 317.579 222.768 317.416 224.103Z" fill="#263238"/>
<path d="M320.822 230.76C320.098 230.9 319.354 230.9 318.63 230.76C317.893 230.731 317.17 230.56 316.498 230.256C317.225 230.253 317.951 230.318 318.666 230.45C319.393 230.482 320.115 230.585 320.822 230.76V230.76Z" fill="#263238"/>
<path d="M326.681 227.69C326.432 229.071 325.976 230.405 325.328 231.648C325.399 230.952 325.576 230.271 325.853 229.629C326.026 228.943 326.305 228.289 326.681 227.69V227.69Z" fill="#263238"/>
<path d="M330.903 222.315C329.647 222.183 328.422 221.839 327.279 221.3C328.533 221.44 329.757 221.783 330.903 222.315V222.315Z" fill="#263238"/>
<path d="M334.297 224.352C333.938 224.881 333.495 225.347 332.987 225.732C332.545 226.193 332.033 226.581 331.471 226.881C331.826 226.348 332.27 225.879 332.781 225.495C333.223 225.035 333.735 224.649 334.297 224.352V224.352Z" fill="#263238"/>
<path d="M335.656 219.324C335.322 218.723 335.116 218.058 335.052 217.372C334.879 216.701 334.85 216 334.968 215.317C335.16 215.97 335.292 216.64 335.36 217.317C335.521 217.975 335.62 218.647 335.656 219.324V219.324Z" fill="#263238"/>
<path d="M342.119 218.169C340.877 219.417 339.62 220.651 338.35 221.871C339.31 220.364 340.599 219.097 342.119 218.169V218.169Z" fill="#263238"/>
<path d="M342.759 215.84C342.066 215.742 341.392 215.536 340.76 215.232C340.09 215.034 339.454 214.732 338.876 214.338C339.567 214.439 340.239 214.644 340.869 214.946C341.54 215.148 342.177 215.45 342.759 215.84Z" fill="#263238"/>
<path d="M342.143 213.341C341.836 212.836 341.621 212.28 341.509 211.699C341.298 211.146 341.185 210.559 341.177 209.967C341.474 210.473 341.678 211.029 341.781 211.608C341.999 212.161 342.122 212.747 342.143 213.341Z" fill="#263238"/>
<path d="M308.331 230.858C308.259 230.912 307.727 230.31 307.196 229.52C306.813 229.071 306.514 228.556 306.314 228C306.769 228.374 307.153 228.827 307.45 229.338C307.827 229.79 308.125 230.304 308.331 230.858V230.858Z" fill="#263238"/>
<path d="M354.38 261.489C354.355 261.404 354.339 261.316 354.332 261.227C354.308 261.045 354.272 260.789 354.223 260.461C354.139 259.774 354.006 258.783 353.843 257.518C353.499 254.965 353.009 251.262 352.278 246.708C351.548 242.154 350.575 236.749 349.192 230.815C349.05 230.07 348.809 229.348 348.473 228.669C348.094 227.999 347.603 227.398 347.024 226.893C345.793 225.868 344.22 225.355 342.627 225.459C341.813 225.504 341.019 225.722 340.295 226.097C339.568 226.51 338.875 226.982 338.223 227.508L334.068 230.614C328.475 234.84 323.238 238.981 318.563 242.866C313.888 246.751 309.811 250.387 306.399 253.469C304.671 254.965 302.829 256.163 300.963 256.357C300.107 256.455 299.24 256.349 298.432 256.047C297.76 255.792 297.127 255.442 296.553 255.007C295.768 254.406 295.04 253.732 294.379 252.995L293.866 252.423C293.803 252.36 293.746 252.291 293.697 252.217C293.766 252.27 293.829 252.331 293.884 252.399L294.421 252.952C295.101 253.665 295.838 254.32 296.626 254.91C297.197 255.325 297.821 255.66 298.48 255.907C299.269 256.19 300.113 256.283 300.945 256.181C302.757 255.98 304.569 254.795 306.26 253.299C309.648 250.204 313.713 246.526 318.388 242.641C323.063 238.756 328.288 234.585 333.887 230.359L338.042 227.252C338.709 226.717 339.418 226.237 340.162 225.817C340.923 225.422 341.759 225.194 342.614 225.149C344.286 225.042 345.935 225.584 347.223 226.662C347.833 227.19 348.346 227.822 348.739 228.529C349.085 229.232 349.335 229.978 349.482 230.748C350.853 236.7 351.795 242.118 352.502 246.672C353.209 251.226 353.662 254.94 353.97 257.5C354.109 258.771 354.217 259.762 354.296 260.455C354.296 260.783 354.35 261.063 354.368 261.227C354.38 261.314 354.384 261.401 354.38 261.489V261.489Z" fill="#263238"/>
<path d="M361.435 261.148C361.239 261.209 361.036 261.242 360.831 261.245C360.439 261.288 359.871 261.337 359.17 261.385C357.763 261.483 355.824 261.586 353.68 261.677L348.189 261.914L346.522 261.975C346.322 261.999 346.119 261.999 345.918 261.975C346.114 261.91 346.317 261.874 346.522 261.866C346.915 261.817 347.483 261.762 348.183 261.701C349.591 261.586 351.53 261.47 353.674 261.373L359.17 261.173L360.837 261.136C361.036 261.115 361.237 261.119 361.435 261.148V261.148Z" fill="#263238"/>
<path d="M345.955 231.393C344.579 233.646 342.787 235.613 340.676 237.187C340.615 237.114 341.884 235.928 343.357 234.329C344.831 232.73 345.864 231.338 345.955 231.393Z" fill="#263238"/>
<path d="M346.54 233.241C345.726 233.867 344.866 234.43 343.967 234.925C343.123 235.516 342.234 236.04 341.31 236.494C342.057 235.78 342.894 235.167 343.798 234.67C344.647 234.077 345.569 233.596 346.54 233.241V233.241Z" fill="#263238"/>
<path d="M397.428 262.717C397.305 262.73 397.182 262.73 397.059 262.717L395.996 262.656L392.13 262.285L379.392 260.948C374.415 260.425 369.921 259.841 366.654 259.677C365.023 259.592 363.694 259.598 362.782 259.634L361.731 259.677C361.607 259.692 361.481 259.692 361.357 259.677C361.478 259.647 361.601 259.626 361.725 259.616C361.961 259.58 362.329 259.549 362.776 259.507C364.071 259.421 365.369 259.403 366.666 259.452C369.952 259.561 374.451 260.108 379.422 260.631L392.161 262.048L396.02 262.516L397.065 262.656C397.188 262.662 397.31 262.682 397.428 262.717V262.717Z" fill="#455A64"/>
<path d="M396.66 269.514C396.576 269.514 396.848 266.474 397.264 262.699C397.681 258.923 398.104 255.913 398.189 255.925C398.273 255.938 398.001 258.965 397.585 262.735C397.168 266.505 396.745 269.52 396.66 269.514Z" fill="#455A64"/>
</g>
<defs>
<filter id="filter0_d" x="0" y="0" width="461" height="312" filterUnits="userSpaceOnUse" color-interpolation-filters="sRGB">
<feFlood flood-opacity="0" result="BackgroundImageFix"/>
<feColorMatrix in="SourceAlpha" type="matrix" values="0 0 0 0 0 0 0 0 0 0 0 0 0 0 0 0 0 0 127 0"/>
<feOffset dy="4"/>
<feGaussianBlur stdDeviation="2"/>
<feColorMatrix type="matrix" values="0 0 0 0 0 0 0 0 0 0 0 0 0 0 0 0 0 0 0.25 0"/>
<feBlend mode="normal" in2="BackgroundImageFix" result="effect1_dropShadow"/>
<feBlend mode="normal" in="SourceGraphic" in2="effect1_dropShadow" result="shape"/>
</filter>
</defs>
</svg>
