<svg width="120" height="120" viewBox="0 0 120 120" fill="none" xmlns="http://www.w3.org/2000/svg">
<circle cx="60" cy="60" r="60" fill="#F8F8FB" fill-opacity="0.6"/>
<path fill-rule="evenodd" clip-rule="evenodd" d="M64.4404 17.5806C64.9465 17.561 65.4641 17.6941 65.9677 17.7364C66.8098 17.8997 67.6658 18.1174 68.4626 18.4264C68.9662 18.6148 69.4092 18.9311 69.9205 19.0847C70.6078 19.3987 71.0748 19.9607 71.723 20.3092C72.169 20.7297 72.5409 21.0117 72.971 21.4373C73.1922 21.6849 73.3872 21.9077 73.595 22.1599C73.6794 22.4767 74.0112 22.7065 74.1146 23.0354C74.2926 23.4016 74.4572 23.8049 74.5307 24.2278C74.6511 24.7051 74.7689 25.1876 74.774 25.67C74.6979 29.4087 74.6454 33.1515 74.774 36.8971C74.985 38.0006 74.8723 39.1511 75.2262 40.2198C75.4042 41.0186 75.5349 41.8378 75.9176 42.4785C76.5776 43.5499 77.0972 44.6925 77.8277 45.7714C78.2294 46.165 78.5412 46.6051 78.9357 47.0257C79.7254 48.0501 80.3854 49.2472 81.2254 50.1925C81.764 51.1672 82.3515 52.12 82.9564 53.0774C83.4076 54.307 84.1823 55.4348 84.5187 56.7142C84.9637 58.1545 85.457 59.5693 85.6973 61.1674C86.2148 63.6978 86.5785 66.2068 86.9087 68.7558C86.8897 70.1334 86.6988 71.5165 86.7719 72.8945C86.6325 73.357 86.7287 73.8069 86.597 74.2749C86.4355 74.9229 86.0224 75.517 85.8696 76.1577C85.9318 76.5164 85.7271 76.8602 85.8012 77.2235C86.1268 77.8251 86.151 78.5155 86.3207 79.1663C86.5918 79.3143 86.7338 79.6088 87.0481 79.7953C87.5847 79.7055 88.1012 79.9363 88.6439 79.8572C89.289 79.7009 89.9618 79.7135 90.5858 79.6074C91.3513 79.5301 92.1039 79.7381 92.8724 79.6693C93.3729 79.9554 93.9527 80.1736 94.3987 80.4536C94.7984 80.669 94.9656 81.1315 95.3704 81.3939C95.231 82.0089 95.3864 82.6551 95.1976 83.2441C94.4975 84.1201 93.8904 85.0753 93.2202 85.9411C92.09 86.9604 91.1877 88.17 90.0987 89.234C88.7745 90.4678 87.6037 91.8044 86.2523 93.0284C84.6659 93.85 83.4976 95.1439 81.9873 96.0697C81.3093 96.3386 80.7645 96.8285 80.0453 96.9476C79.4486 97.1155 78.7922 97.2202 78.1713 97.2918H76.5437C76.0375 97.1355 75.4716 97.1155 74.9814 96.9476C74.667 96.7824 74.3224 96.7103 74.0106 96.5721C73.433 96.2721 73.0199 95.8096 72.4864 95.4728C72.3609 95.1439 72.0322 94.9066 71.7909 94.627C71.5095 94.0655 71.2194 93.5039 71.0635 92.9033C71.0604 92.6107 70.9457 92.3562 70.8907 92.0863C69.5563 92.1854 68.208 92.2101 66.8679 92.339C65.4805 92.2743 64.0911 92.2617 62.7062 92.2743C60.9037 92.0389 59.0981 91.9626 57.2981 91.6165C56.0147 91.3513 54.7456 91.1014 53.4842 90.7376C52.5433 90.3687 51.5531 90.0672 50.642 89.7034C50.5001 89.5127 50.1909 89.4908 50.051 89.327C49.605 89.6588 49.3534 90.1486 48.9074 90.5492C48.5957 91.2987 48.054 91.9565 47.6244 92.6525C47.4465 92.8451 47.1841 93.0303 47.1733 93.2778C46.8009 93.5579 46.5246 93.8421 46.1661 94.1566C45.4958 94.392 44.9047 94.8145 44.1907 94.8764C44.0101 95.0815 43.5425 94.8619 43.3589 95.0671C42.7436 95.1978 42.1304 94.9233 41.5208 95.0345C40.777 94.7331 39.956 94.533 39.2666 94.2185C38.0223 93.5797 36.7799 92.9517 35.5217 92.3673C33.0084 90.6798 30.5348 88.9444 28.1027 87.1623C27.3393 86.4742 26.5764 85.7838 25.813 85.0943C25.6052 84.5444 25.3917 84.0131 25.2605 83.4632C25.4164 83.0678 25.5671 82.7063 25.6767 82.3029C25.8871 82.1331 26.0841 81.8749 26.3001 81.707C26.5738 81.2027 27.3346 81.1799 27.8269 80.9547C28.3908 80.7821 28.9319 80.7937 29.4901 80.703C30.1629 80.7002 30.6557 80.3615 31.2247 80.2652C31.2767 80.0773 31.4351 79.9637 31.5009 79.7628C31.6321 79.1049 31.2931 78.4443 31.3615 77.7883C31.5282 77.4147 31.6517 77.0486 31.8127 76.6578C31.9279 76.3833 32.2505 76.106 32.5077 75.9697C32.7103 75.9051 32.7597 75.7325 33.0277 75.7497C33.5809 75.7022 34.1377 75.7022 34.6909 75.7497C35.2104 75.9176 35.7357 76.0786 36.2501 76.2814C36.5042 76.3949 36.8957 76.3261 37.2213 76.3461C37.5387 76.1581 37.7054 75.7199 38.0202 75.5617C38.4034 74.8077 38.8926 74.1016 39.4755 73.4607C39.6422 73.3942 39.6782 73.2379 39.8582 73.209C40.1046 73.0829 40.0146 72.7582 40.0306 72.6447C39.7708 71.1229 39.9812 69.5918 39.9621 68.0649C40.0964 66.8502 40.241 65.6062 40.4822 64.4287C40.7173 63.3275 41.046 62.2332 41.278 61.1357C41.7816 59.8163 42.4242 58.4979 42.9772 57.2161C45.7098 52.1963 48.8066 47.3523 51.6817 42.4166C52.2177 41.7262 52.6035 40.9544 53.137 40.284V40.1579C53.0439 39.5047 53.3803 38.8469 53.2764 38.2132V32.8198C53.1344 31.6916 53.2517 30.5583 53.137 29.4329C53.1149 29.3068 53.0876 29.183 53.0686 29.0569V25.858C53.1699 25.8333 53.1231 25.7766 53.137 25.7342C53.0464 25.4202 53.2898 25.1974 53.2054 24.8857C53.3911 24.527 53.476 24.1092 53.5526 23.7254C53.9647 22.9381 54.5022 22.2097 55.1479 21.5634C55.7384 21.0214 56.3928 20.5785 57.0219 20.0891C57.8671 19.468 58.8383 19.0079 59.7956 18.5524C60.4356 18.3645 60.9881 18.0402 61.7355 17.9262C62.608 17.6745 63.5411 17.5657 64.4404 17.5806Z" fill="black"/>
<path fill-rule="evenodd" clip-rule="evenodd" d="M68.3259 29.6633C68.7436 29.9017 69.1186 30.184 69.5728 30.4099C69.9206 31.108 69.5599 31.8619 69.6412 32.5891C69.2647 33.4983 69.0044 34.5669 67.9786 35.0807C67.3737 35.0881 66.7476 34.8816 66.1761 34.7074C66.7095 34.5425 67.4591 34.2994 67.7024 33.7122C68.0059 33.3043 68.1618 32.8224 68.1864 32.341C68.1371 31.7686 68.0167 31.1643 67.6309 30.6903C67.3048 30.3509 66.8689 30.1114 66.3839 30.0052C65.5819 29.8698 64.9631 30.3244 64.5803 30.7841C64.3895 31.1228 64.1925 31.4693 64.1292 31.843C63.9702 32.6418 64.302 33.4794 64.7172 34.1479C64.3643 33.8111 63.7053 33.7769 63.5057 33.3394C62.9291 32.1576 62.9532 30.8211 63.4707 29.6642C65.0402 29.1962 66.7497 29.108 68.3259 29.6633ZM57.575 29.631C57.9032 29.8523 58.4093 29.7908 58.6856 30.0976C59.1818 31.2274 59.2782 32.4672 58.9618 33.648C58.5842 33.6305 58.2617 34.2403 58.0616 33.9599C58.4886 33.0728 58.4747 32.0019 57.8893 31.1565C57.5858 30.8026 57.1701 30.4293 56.6747 30.4094C56.3023 30.5522 55.8974 30.5836 55.6351 30.9084C55.0306 31.5376 54.9509 32.4339 55.0116 33.2128C55.1428 33.9941 55.7061 34.6894 56.5024 35.0188C56.1361 35.2031 55.7915 35.3602 55.3917 35.4535C54.8861 34.9056 54.6232 34.2251 54.385 33.5542C54.0537 32.5887 54.2425 31.6203 54.2482 30.6575C54.6448 30.2547 55.1592 29.9571 55.704 29.7557C56.1305 29.479 57.0029 29.6287 57.575 29.631ZM68.6021 40.2495C69.045 41.4096 69.2883 42.608 69.6412 43.7999C70.0543 45.124 70.7904 46.3354 71.3404 47.6008C71.9453 48.6329 72.539 49.6696 73.0395 50.7752C73.0616 50.8195 73.0889 50.856 73.111 50.9004C74.3168 53.2542 75.502 55.603 76.7161 57.9689C77.4604 59.7328 78.1338 61.5069 78.659 63.3567C78.7023 64.2969 79.1405 65.2066 79.0037 66.1592C78.445 67.9504 78.035 69.7928 77.3401 71.547C77.1785 71.8736 77.051 72.2127 76.7521 72.4493C76.6096 72.4465 76.6152 72.5763 76.4728 72.574C76.1934 72.7935 75.9666 73.0416 75.8138 73.3539C75.5796 73.9645 75.463 74.6064 75.4691 75.2522C75.1594 75.218 74.9495 75.0411 74.7057 74.9085C74.1944 74.7902 73.7052 74.6331 73.1794 74.5347C72.5776 74.6017 71.4916 74.2053 71.3085 74.8794C71.0261 75.2079 70.791 75.3132 70.5451 75.6583C70.2299 77.3794 70.0216 79.1148 69.9211 80.8567C69.9895 82.0163 69.7734 83.181 69.8496 84.3452C69.0044 84.8488 68.0584 85.2078 67.0763 85.4974C66.3175 85.7114 65.5855 85.9668 64.6488 85.9964C63.818 86.1165 62.9666 86.1262 62.1538 86.2445C60.9038 86.3032 59.6537 86.2519 58.4093 86.2759C57.5065 86.1858 56.5188 86.0251 55.704 85.9636C53.956 85.6079 52.2322 85.1833 50.6431 84.4062C50.6704 83.8541 51.0017 83.2369 50.78 82.6321C49.8607 80.3088 48.5751 78.1221 47.5221 75.844C46.5812 73.692 45.8564 71.474 44.9202 69.3363C44.3435 68.2326 43.8126 67.1146 43.3939 65.9725C43.1557 65.6801 43.3913 65.3318 43.4649 65.037C43.807 63.4653 44.5699 62.0548 45.1995 60.5533C46.2361 58.691 47.1502 56.7774 48.3889 55.0108C48.999 54.0992 48.9743 53.0403 49.3247 52.0526C49.7321 50.8514 50.4137 49.7828 50.9878 48.6601C51.8494 47.4312 52.476 46.0924 53.3104 44.8593C54.0491 43.4858 54.5769 41.9358 55.3568 40.6879C55.8383 41.0834 56.3609 41.4003 56.8476 41.8083C57.5096 42.0956 58.2154 42.3904 58.9618 42.3682C59.9799 42.5059 60.9948 42.3733 62.0144 42.3682C63.3879 42.1645 64.7563 41.8868 65.9683 41.2802C66.8273 40.8894 67.6473 40.3761 68.4982 40.0642C68.5342 40.1266 68.5661 40.1881 68.6021 40.2495ZM43.1526 57.6266C43.1717 57.5651 43.2015 57.5014 43.221 57.4399C43.2015 57.5009 43.1717 57.5651 43.1526 57.6266ZM42.737 58.8111V58.7469V58.8111Z" fill="white"/>
<path fill-rule="evenodd" clip-rule="evenodd" d="M61.6317 32.8398C62.0427 32.9553 62.5098 32.9922 62.8462 33.2135C62.9507 33.3859 63.1971 33.4963 63.2624 33.6802C64.6467 34.363 65.9981 35.0685 67.5624 35.3604C68.2898 35.2842 69.0044 35.5619 69.6412 35.8913C69.8192 36.0904 70.0111 36.2498 70.1968 36.4198C70.2812 36.8698 70.6155 37.2278 70.4411 37.7587C70.3177 38.0262 70.2812 38.368 70.0574 38.5695C69.7431 38.8148 69.6114 39.1613 69.2616 39.3775C67.8418 39.967 66.621 40.8171 65.1359 41.3405C63.5844 41.9471 61.6286 42.0876 59.6563 42.1804C59.0879 42.0899 58.4773 42.0945 57.9577 41.9323C57.5744 41.8515 57.2051 41.6205 56.8826 41.4948C56.0147 40.8291 54.9946 40.3006 54.3166 39.4413C54.278 39.1733 54.0918 39.1169 54.0049 38.8809C53.7317 38.466 53.7749 37.5642 53.9694 37.1045C53.9972 36.8097 54.2678 36.5713 54.3171 36.3256C55.4221 35.6376 56.719 35.3179 57.8188 34.6448C58.3605 33.9911 59.3811 33.822 59.9007 33.2126C60.4691 33.0782 61.0216 32.6485 61.6317 32.8398Z" fill="#E7BF5D"/>
<path fill-rule="evenodd" clip-rule="evenodd" d="M68.3942 38.1318C67.7018 38.7833 66.7316 38.9403 65.8283 39.2226C63.6528 39.5469 61.4809 39.8001 59.3095 39.9078C58.3857 39.9549 57.4596 39.9549 56.5358 39.9078C55.9226 39.8172 55.3238 39.5516 54.8011 39.2545C54.5414 38.9648 54.1447 38.6964 54.1093 38.3185C54.848 38.6008 55.2199 39.4069 56.1196 39.4707C58.0132 39.8001 59.9083 39.5248 61.8065 39.4093C64.0469 39.2374 66.5063 38.6895 68.3942 38.1318Z" fill="black"/>
<path fill-rule="evenodd" clip-rule="evenodd" d="M53.0692 25.8014C53.0887 25.7598 53.1155 25.7205 53.1376 25.6785C53.1237 25.7205 53.1705 25.7769 53.0692 25.8014ZM67.3876 27.6073C67.6639 27.6614 67.8259 27.9219 68.1181 27.9192C68.4293 28.2185 68.7087 28.5382 69.0183 28.8528C69.1331 29.3855 69.6362 29.8304 69.5729 30.4102C69.1187 30.1843 68.7442 29.9016 68.3259 29.6637C66.7497 29.1083 65.0403 29.1966 63.4703 29.6637C63.5166 29.3172 63.869 29.0469 63.9564 28.73C64.3402 28.2338 64.923 27.8577 65.5522 27.6392C66.1098 27.3246 66.7827 27.5186 67.3876 27.6073ZM56.7432 28.0762C57.0086 28.1428 57.1727 28.3835 57.4382 28.4176C57.7695 28.7669 58.163 29.0737 58.4094 29.4765C58.5925 29.6507 58.5406 29.9233 58.6856 30.0979C58.4094 29.7907 57.9032 29.8521 57.575 29.6313C57.003 29.6285 56.1305 29.4789 55.7041 29.7565C55.1593 29.9579 54.6449 30.2555 54.2482 30.6583V30.2236C54.3839 29.7037 54.5936 29.2017 54.8722 28.73C55.1865 28.5479 55.3182 28.231 55.7041 28.1377C55.9253 27.9778 56.4505 28.0467 56.7432 28.0762ZM53.1376 29.3513C53.0692 29.2261 53.0692 29.1032 53.0692 28.978C53.0887 29.1032 53.1155 29.2261 53.1376 29.3513ZM53.1376 40.127C53.0692 40.0826 53.0692 40.0456 53.1376 40.0018V40.127ZM73.1106 50.9003C73.0885 50.8564 73.0612 50.8194 73.0391 50.7751C73.1409 50.7723 73.0967 50.8559 73.1106 50.9003ZM43.7761 56.1947C43.7982 56.1504 43.8255 56.1139 43.8445 56.0695C43.8255 56.1139 43.7982 56.1504 43.7761 56.1947ZM59.4485 58.9658C59.517 59.3049 59.4923 59.7101 59.5879 59.9928C59.1121 62.5611 58.7921 65.1154 58.5128 67.7151C58.2474 69.8527 58.3189 71.9978 57.9222 74.1327C57.8538 74.3193 57.7005 74.5674 57.4711 74.6922C57.2741 74.7347 57.1645 74.6335 57.0904 74.5351C56.97 74.3069 56.844 74.1345 56.8471 73.8204C56.7051 73.3556 56.7926 72.9061 56.7787 72.4496C56.8687 69.5746 57.2247 66.7079 57.6105 63.8556C57.8677 62.3296 57.9773 60.7939 58.5133 59.3077C58.5894 59.1066 58.7353 58.9327 58.9295 58.8115C59.0607 58.7819 59.0884 58.7232 59.2412 58.7473C59.3091 58.823 59.3806 58.89 59.4485 58.9658Z" fill="#C6C7C9"/>
<path fill-rule="evenodd" clip-rule="evenodd" d="M42.2169 72.3881C42.5831 72.5082 42.8074 72.8131 43.1526 72.9799C43.4916 73.7316 43.9597 74.3774 44.2962 75.1263C45.3111 77.5005 46.1537 79.9121 47.0015 82.3524C47.0668 82.7631 47.2803 83.0967 47.3462 83.5347C47.431 85.4311 48.0087 87.2911 48.0412 89.2024C47.9342 89.669 48.1312 90.3103 47.8688 90.6669C47.6579 91.426 47.2366 92.052 46.8266 92.7524C46.3945 93.1086 46.0498 93.5165 45.4397 93.6565C45.1249 93.8261 44.7499 93.9517 44.3317 94.0303C43.5791 94.2326 42.597 94.2927 41.6947 94.2169C41.0574 94.0058 40.3788 93.839 39.7549 93.6251C38.3819 92.866 36.9152 92.2391 35.5227 91.5688C33.2001 89.9231 30.7761 88.3131 28.5199 86.6504C27.6881 85.8913 26.8562 85.1373 26.0224 84.3783C25.9154 83.9435 25.7322 83.5005 25.5383 83.1004C25.6916 82.6287 25.9514 82.1861 26.0939 81.7287C26.3182 81.5772 26.5589 81.3319 26.7174 81.2007C27.2673 81.0168 27.7899 80.734 28.3805 80.7017C29.0014 80.5492 29.8167 80.6356 30.3908 80.3894C30.8235 80.1764 31.4799 80.1709 31.6414 79.7047C31.6959 79.5033 31.7834 79.3656 31.9176 79.2058C31.8796 78.8052 31.7479 78.3954 31.7453 77.9921C31.7124 77.7468 31.6357 77.2991 31.8137 77.1203C31.8112 76.7027 32.2052 76.376 32.2649 75.9995C32.4948 75.8868 32.678 75.7214 32.9568 75.6586C33.3261 75.6849 33.6301 75.4738 33.9995 75.5943C34.3658 75.6484 34.7434 75.5916 35.1071 75.781C35.4846 75.9866 36.0124 75.9524 36.3576 76.2176C36.6256 76.2772 36.9322 76.2347 37.2218 76.2471C37.657 75.9321 37.8644 75.5343 38.297 75.2201C38.5897 74.7212 38.8659 74.2148 39.2353 73.7556C39.4184 73.5057 39.6319 73.2936 39.8588 73.0723C40.1818 72.9623 40.3763 72.7161 40.6906 72.6357C41.117 72.4093 41.6093 72.2647 42.113 72.262C42.113 72.3437 42.1978 72.3114 42.2169 72.3881ZM73.8029 74.9725C74.1095 74.9896 74.4366 75.1393 74.7052 75.1892C74.913 75.2866 75.037 75.4987 75.3292 75.5005C75.4326 76.2407 75.2088 76.9974 75.4326 77.7435C75.5118 78.0845 75.7088 78.4194 75.8847 78.7091C76.3168 79.2053 77.0062 79.4465 77.5124 79.8613C78.1765 80.1293 78.8277 80.4684 79.5582 80.576C80.1498 80.7169 81.1395 80.8565 81.7085 80.576C81.8813 80.449 82.1468 80.3894 82.3001 80.2965C82.7291 79.9454 83.0213 79.5352 83.3752 79.1443C83.8454 78.169 84.4473 77.252 84.9699 76.3118C85.1639 76.3802 85.205 76.589 85.3861 76.6856C85.9247 77.4298 85.6845 78.4342 86.2853 79.1443C86.5518 79.2968 86.7071 79.6308 87.0487 79.6433C87.5281 79.7218 88.1156 79.6118 88.5395 79.7361C89.9259 79.4779 91.358 79.4247 92.7696 79.5495C93.2177 79.6479 93.6338 79.9556 94.0515 80.0484C94.3993 80.3552 94.6946 80.7488 95.0233 81.0436C95.0341 81.6372 95.0094 82.2498 94.8154 82.8195C94.0798 83.7661 93.4641 84.7234 92.7367 85.652C91.4727 86.7266 90.4166 88.0331 89.3389 89.2029C88.3975 89.9402 87.667 90.9058 86.8414 91.6944C86.5158 91.9624 86.1773 92.1952 85.8707 92.5048C85.4386 92.6799 85.1814 93.0453 84.7261 93.188C83.8619 93.9083 82.8742 94.4488 82.0568 95.2444C81.5372 95.4384 81.0449 95.7336 80.5305 95.9619C79.3509 96.3407 78.0818 96.5098 76.856 96.4909C76.2268 96.277 75.5349 96.404 74.914 96.0848C74.5832 95.906 74.1805 95.8251 73.8744 95.6182C73.2262 95.1714 72.6598 94.6281 72.1403 94.0608C71.8913 93.7341 71.7766 93.4361 71.6207 93.0656C71.0955 91.0878 70.6793 89.1082 70.1978 87.1174C70.2328 84.8255 70.1104 82.4152 70.3012 80.236C70.4025 79.5874 70.2359 78.7941 70.4416 78.2439C70.5229 77.3471 70.8074 76.4555 70.8918 75.5657C71.2205 75.3689 71.3769 75.0667 71.6531 74.8168C72.3692 74.8667 73.2854 74.687 73.8029 74.9725ZM48.1811 86.089C48.7963 86.5556 49.6333 86.7723 49.9481 87.5221C50.0464 87.7578 50.1919 88.0571 50.1559 88.3306C49.5103 89.0966 48.4872 89.6672 48.285 90.6984C48.4928 89.1165 48.2634 87.5337 47.9378 85.9638C47.9805 86.023 48.1559 85.9906 48.1811 86.089Z" fill="#E7BF5D"/>
<path fill-rule="evenodd" clip-rule="evenodd" d="M43.1526 57.6267C43.1387 57.6761 43.1305 57.7325 43.1171 57.7819C43.1305 57.732 43.1387 57.6761 43.1526 57.6267ZM42.737 58.8113C42.7154 58.8528 42.6876 58.8898 42.5616 58.9928C42.6876 58.8898 42.7149 58.8528 42.737 58.8113ZM43.0811 57.8134C43.0672 57.8628 43.0621 57.9192 43.0482 57.9686C43.0621 57.9187 43.0678 57.8628 43.0811 57.8134ZM43.1171 57.7819L43.0816 57.8134L43.1171 57.7819ZM43.0132 58C42.9999 58.0494 42.9916 58.1058 42.9777 58.1552C42.9911 58.1058 42.9993 58.0499 43.0132 58ZM43.0487 57.9686L43.0132 58L43.0487 57.9686ZM42.9448 58.1867C42.9309 58.2361 42.9227 58.2924 42.9093 58.3419C42.9227 58.2924 42.9309 58.2365 42.9448 58.1867ZM42.9777 58.1552C42.9638 58.1668 42.9582 58.1742 42.9448 58.1867C42.9582 58.1742 42.9638 58.1668 42.9777 58.1552Z" fill="white"/>
<path fill-rule="evenodd" clip-rule="evenodd" d="M42.2498 62.3295C42.2169 62.3295 42.2714 62.621 42.3018 62.9241C42.3373 62.9042 42.3543 63.1892 42.3373 63.4932C42.2828 63.1809 42.2365 62.894 42.2498 62.9213C42.2303 62.8645 42.1922 62.6533 42.1732 62.4865C42.132 62.317 42.0971 62.0518 42.1295 62.2311C42.0641 61.9603 42.1485 61.5722 42.1567 61.2502C42.1814 61.1102 42.1783 61.2387 42.2606 60.2135C42.3923 59.4332 42.6495 58.6192 43.8147 56.123C42.6331 58.9633 42.507 59.423 42.5209 59.5131C42.4417 59.6808 42.3867 60.2555 42.3486 60.6436C42.2987 60.9606 42.2195 61.7963 42.2498 62.3295ZM78.5542 51.4309C78.532 51.448 78.5048 51.4725 78.4827 51.4924C78.5048 51.4725 78.532 51.448 78.5542 51.4309Z" fill="white"/>
<path fill-rule="evenodd" clip-rule="evenodd" d="M79.7326 54.8878C80.0973 55.7623 80.1163 56.7866 80.1817 57.6265C80.3164 59.1183 80.1786 60.617 80.1817 62.1102C79.9162 64.604 79.5386 67.1127 78.9347 69.5844C78.8822 69.9184 78.6081 70.1637 78.5185 70.4571C78.4501 70.5254 78.3791 70.5254 78.3107 70.4571C78.376 70.2506 78.5155 70.1203 78.587 69.9258C78.9445 68.4982 79.23 67.0374 79.5253 65.6001C79.7192 64.4848 79.7465 63.3686 79.8365 62.2659L79.9049 62.2044C79.8123 61.4255 80.0608 60.6443 79.9733 59.8681C80.0747 59.8067 80.0304 59.7013 80.0448 59.62C80.1132 58.5606 79.8447 57.4994 79.9054 56.4429C79.8514 55.5632 79.408 54.7376 79.3174 53.8903C79.178 53.0546 78.7619 52.2835 77.5231 49.2935C78.5319 51.5244 78.5731 51.554 78.5813 51.5614C78.7403 51.9961 79.0355 52.3477 79.1096 52.77C79.3699 53.3988 79.5767 54.1902 79.7326 54.8878ZM42.8733 58.374C42.8599 58.4225 42.8543 58.4798 42.8409 58.5292C42.8543 58.4793 42.8599 58.4225 42.8733 58.374ZM42.9093 58.3421C42.8959 58.3537 42.8877 58.362 42.8738 58.3735L42.9093 58.3421ZM42.8409 58.5292C42.827 58.5436 42.8193 58.5482 42.8054 58.5606C42.8188 58.5482 42.827 58.5436 42.8409 58.5292Z" fill="white"/>
</svg>
