<svg width="120" height="120" viewBox="0 0 120 120" fill="none" xmlns="http://www.w3.org/2000/svg">
<circle cx="60" cy="60" r="60" fill="#F8F8FB" fill-opacity="0.6"/>
<g clip-path="url(#clip0)">
<path d="M40.778 55.5084L25.7576 60.8581C25.9506 63.2152 26.3648 65.5436 26.9484 67.8252L41.215 62.7393C40.7578 60.3821 40.5943 57.9473 40.7813 55.5081L40.778 55.5084ZM107.155 39.2505C106.107 37.1355 104.896 35.0913 103.492 33.1648L88.476 38.5144C90.2235 40.2643 91.6892 42.2308 92.8888 44.3339L107.155 39.2498V39.2505H107.155Z" fill="#DA2430"/>
<path d="M80.5113 39.1639C78.6222 37.5594 76.4884 36.1743 74.1134 35.09H74.1123C60.1687 28.7266 43.5308 34.6468 37.03 48.3011C36.6675 49.0635 36.3421 49.8423 36.055 50.6349C35.2435 52.9456 34.7694 55.3081 34.5882 57.6667L34.5352 57.6862L34.5312 57.738L25.4915 60.9578L19.675 63.0621L19.6725 63.0304L19.513 63.0872C18.9484 56.0953 20.1525 48.8724 23.3915 42.0733C23.8124 41.1894 24.2644 40.3199 24.7465 39.4665C35.4247 19.9977 59.7218 11.8599 80.2129 21.3597C84.3501 23.2767 88.1427 25.8371 91.4434 28.9413C93.5973 30.8926 95.5407 33.0553 97.243 35.3954L82.2269 40.7465C82.1496 40.6692 82.0718 40.5923 81.9936 40.5159L81.952 40.5306C81.4882 40.059 81.0078 39.6033 80.5117 39.1643L80.5113 39.1639Z" fill="#DA2430"/>
<path d="M20.3513 86.8088L20.3278 86.8174C17.2104 82.5192 14.9351 77.6918 13.6175 72.5807L27.8867 67.4937L27.8874 67.4947L27.8962 67.5397L27.9889 67.5062L27.9911 67.5116C28.7239 71.3107 30.2495 74.9353 32.4742 78.1224C33.3266 79.3136 34.2757 80.4355 35.3122 81.4775L35.2556 81.498L35.3637 81.6088L20.4832 86.9944C20.4391 86.9329 20.395 86.871 20.3513 86.8088Z" fill="#E82429"/>
<path d="M77.0253 83.0497C69.2885 87.7327 59.3646 88.6375 50.5219 84.601C47.4848 83.2171 44.7303 81.3038 42.393 78.9546L27.4082 84.2949L27.5232 84.4521L27.5159 84.4549C31.6358 90.2169 37.256 95.0333 44.1523 98.233C59.0261 105.127 75.9018 102.73 88.1209 93.454C93.5927 89.4419 98.1607 84.0945 101.246 77.6174C104.488 70.8197 105.685 63.5997 105.111 56.6131L104.693 56.7621C104.688 56.6873 104.682 56.6124 104.676 56.5376L89.795 61.9185L89.7958 61.92C89.5526 65.2143 88.7053 68.4389 87.2944 71.4392C84.9734 76.387 81.3537 80.3281 77.0257 83.0497H77.0253Z" fill="#DA2430"/>
<path d="M93.596 44.0815L93.8191 44.0016V44.0012C96.1721 48.744 97.5998 53.8752 98.0288 59.1309L83.0436 64.4676L83.0517 64.3582L82.7687 64.4608C83.1766 59.0327 81.9325 53.6345 79.3011 48.9469L93.4685 43.8203L93.4692 43.8188C93.5119 43.9063 93.5541 43.9937 93.596 44.0815Z" fill="#E82429"/>
<path d="M40.7964 55.4224L25.8822 60.8173C26.0733 63.1954 26.4849 65.5431 27.0653 67.8442L41.2319 62.7147C40.7736 60.3324 40.609 57.8803 40.8023 55.4209L40.7964 55.4224ZM106.708 39.0278C105.667 36.8948 104.463 34.8337 103.07 32.8906L88.1596 38.2856C89.8943 40.0506 91.3497 42.0336 92.5405 44.1551L106.706 39.0263L106.708 39.0278H106.708Z" fill="#C22035"/>
<path d="M25.8815 60.8186L40.7597 55.4837L40.699 58.4096L26.3449 63.7157L25.8796 60.815L25.8815 60.8186ZM88.1618 38.2415L103.272 33.166L104.842 35.4861L90.1612 40.5663L88.164 38.2404L88.1618 38.2415Z" fill="#AC223B"/>
<path d="M27.5192 84.4002L42.415 79.0941L46.9202 83.2547L31.2992 88.995L27.5199 84.3987L27.5192 84.4002ZM104.926 56.5767L89.7969 61.9169L88.6826 67.8451L104.814 62.2173L104.928 56.5774L104.927 56.5767H104.926Z" fill="#B92135"/>
</g>
<defs>
<clipPath id="clip0">
<rect width="94.1053" height="85.2632" fill="white" transform="translate(13.2632 17.0527)"/>
</clipPath>
</defs>
</svg>
