<svg width="911" height="528" viewBox="0 0 911 528" fill="none" xmlns="http://www.w3.org/2000/svg">
<g opacity="0.5">
<path opacity="0.5" d="M419.96 0H0V290.83H419.96V0Z" fill="url(#paint0_linear)"/>
</g>
<path d="M416.7 4.33997H4.33984V287.57H416.7V4.33997Z" fill="#F7F7F7"/>
<g opacity="0.5">
<path opacity="0.5" d="M71.35 107.98C75.5474 107.98 78.95 104.577 78.95 100.38C78.95 96.1827 75.5474 92.78 71.35 92.78C67.1526 92.78 63.75 96.1827 63.75 100.38C63.75 104.577 67.1526 107.98 71.35 107.98Z" fill="#D72D35"/>
<path opacity="0.5" d="M71.35 153.56C75.5474 153.56 78.95 150.157 78.95 145.96C78.95 141.763 75.5474 138.36 71.35 138.36C67.1526 138.36 63.75 141.763 63.75 145.96C63.75 150.157 67.1526 153.56 71.35 153.56Z" fill="#D72D35"/>
<path opacity="0.5" d="M71.35 199.13C75.5474 199.13 78.95 195.727 78.95 191.53C78.95 187.333 75.5474 183.93 71.35 183.93C67.1526 183.93 63.75 187.333 63.75 191.53C63.75 195.727 67.1526 199.13 71.35 199.13Z" fill="#D72D35"/>
</g>
<path d="M357.3 96.04H127.24V104.72H357.3V96.04Z" fill="#E0E0E0"/>
<path d="M357.3 141.61H127.24V150.29H357.3V141.61Z" fill="#E0E0E0"/>
<path d="M357.3 187.19H127.24V195.87H357.3V187.19Z" fill="#E0E0E0"/>
<g opacity="0.5">
<path opacity="0.5" d="M566.46 118.28H146.5V409.11H566.46V118.28Z" fill="url(#paint1_linear)"/>
</g>
<path d="M563.2 122.62H150.84V405.85H563.2V122.62Z" fill="#F7F7F7"/>
<g opacity="0.5">
<path opacity="0.5" d="M217.85 226.26C222.047 226.26 225.45 222.857 225.45 218.66C225.45 214.463 222.047 211.06 217.85 211.06C213.653 211.06 210.25 214.463 210.25 218.66C210.25 222.857 213.653 226.26 217.85 226.26Z" fill="#D72D35"/>
<path opacity="0.5" d="M217.85 271.84C222.047 271.84 225.45 268.437 225.45 264.24C225.45 260.043 222.047 256.64 217.85 256.64C213.653 256.64 210.25 260.043 210.25 264.24C210.25 268.437 213.653 271.84 217.85 271.84Z" fill="#D72D35"/>
<path opacity="0.5" d="M217.85 317.42C222.047 317.42 225.45 314.017 225.45 309.82C225.45 305.623 222.047 302.22 217.85 302.22C213.653 302.22 210.25 305.623 210.25 309.82C210.25 314.017 213.653 317.42 217.85 317.42Z" fill="#D72D35"/>
</g>
<path d="M503.79 214.32H273.73V223H503.79V214.32Z" fill="#E0E0E0"/>
<path d="M503.79 259.9H273.73V268.58H503.79V259.9Z" fill="#E0E0E0"/>
<path d="M503.79 305.47H273.73V314.15H503.79V305.47Z" fill="#E0E0E0"/>
<g opacity="0.5">
<path opacity="0.5" d="M712.96 236.57H293V527.4H712.96V236.57Z" fill="url(#paint2_linear)"/>
</g>
<path d="M709.7 240.91H297.34V524.14H709.7V240.91Z" fill="#EEEEEE"/>
<path d="M364.35 344.54C368.547 344.54 371.95 341.137 371.95 336.94C371.95 332.743 368.547 329.34 364.35 329.34C360.153 329.34 356.75 332.743 356.75 336.94C356.75 341.137 360.153 344.54 364.35 344.54Z" fill="#D72D35"/>
<path d="M364.35 390.12C368.547 390.12 371.95 386.717 371.95 382.52C371.95 378.323 368.547 374.92 364.35 374.92C360.153 374.92 356.75 378.323 356.75 382.52C356.75 386.717 360.153 390.12 364.35 390.12Z" fill="#D72D35"/>
<path d="M364.35 435.7C368.547 435.7 371.95 432.297 371.95 428.1C371.95 423.903 368.547 420.5 364.35 420.5C360.153 420.5 356.75 423.903 356.75 428.1C356.75 432.297 360.153 435.7 364.35 435.7Z" fill="#D72D35"/>
<path d="M650.29 332.6H420.23V341.28H650.29V332.6Z" fill="#DFDFDF"/>
<path d="M650.29 378.18H420.23V386.86H650.29V378.18Z" fill="#DFDFDF"/>
<path d="M650.29 423.76H420.23V432.44H650.29V423.76Z" fill="#DFDFDF"/>
<g opacity="0.5">
<path opacity="0.5" d="M902.11 232.7C899.11 232.51 896.02 230.44 895.72 227.46C895.36 223.9 898.72 221.29 900.85 218.38C904.57 213.2 904.12 205.75 900.76 200.38C897.4 195.01 891.58 191.38 885.47 189.58C880.4 188.07 874.47 187.23 871.47 182.81C866.73 175.63 874.06 166.62 874.69 158.04C875.29 149.87 868.53 141.86 860.37 141.04C855.65 140.59 850.11 142.04 846.69 138.74C845.751 137.773 845.035 136.612 844.59 135.34C842.39 129.63 843.42 123.27 843.7 117.16C843.98 111.05 843.14 104.16 838.43 100.27C835.71 98 832.11 97.11 828.62 96.54C818.03 94.81 807.18 95.4 796.56 96.96C781.77 99.13 766.35 103.73 756.56 115.02C746.77 126.31 745.49 145.91 757.31 155.02C756.31 154.22 756.75 152.45 758.18 150.33C758.18 150.53 758.18 150.72 758.18 150.92C758.174 157.072 760.061 163.078 763.583 168.122C767.105 173.166 772.093 177.006 777.87 179.12V181.23C775.718 181.754 773.665 182.622 771.79 183.8C751.65 188.77 711.37 213.59 711.37 213.59L652.22 223.59C652.22 223.59 623.22 228.05 624.32 232.52C625.42 236.99 652.22 233.64 652.22 233.64H712.03C717.457 233.633 722.796 232.258 727.55 229.64L760.25 211.64C760.09 214.24 760.01 216.92 759.99 219.64C754.82 223.34 749.76 231.42 760.39 248.06L760.47 247.6C760.47 247.75 760.47 247.91 760.47 248.06L748.58 302.88C744.96 305.56 742.48 308.03 743.34 309.35C743.84 310.11 745.18 310.25 747.01 310L730.55 386L776.67 441.7L784.37 485.8L777.12 492.75L750.22 497.75C749.62 497.86 749.083 498.19 748.715 498.676C748.347 499.162 748.174 499.769 748.23 500.376C748.287 500.983 748.569 501.547 749.02 501.957C749.472 502.367 750.06 502.593 750.67 502.59H809.61V491.48H810.15L809.15 478.14L827.78 465.96L821.67 456.62L820.8 457.19L805.92 436.4L803.37 403.64L830.57 305.1V304.99L823.89 277.5L835.6 271.56C839.288 269.686 842.175 266.544 843.731 262.712C845.287 258.88 845.408 254.614 844.07 250.7C842.28 245.51 840.07 239.39 837.49 233.17C841.356 237.029 845.829 240.228 850.73 242.64C870.11 251.75 893.35 243.07 910.73 230.57C907.98 231.7 905.1 232.9 902.11 232.7ZM818.63 255.83L814.48 238.77L820.12 253.19C819.37 254.5 818.81 255.48 818.62 255.84L818.63 255.83ZM795.47 181.39V180.11C799.327 179.169 802.957 177.469 806.15 175.11C805.874 179.604 806.31 184.112 807.44 188.47C804.81 185.06 801.01 182.7 795.46 181.41L795.47 181.39ZM764.15 377.97L787.99 309.04L773.37 390.87L764.15 377.97Z" fill="url(#paint3_linear)"/>
</g>
<path d="M820.15 452.27L799.26 465.93L775.18 489.02C774.784 489.403 774.533 489.911 774.471 490.459C774.409 491.006 774.539 491.558 774.84 492.02C775.01 492.281 775.23 492.505 775.487 492.681C775.744 492.857 776.033 492.98 776.337 493.044C776.642 493.108 776.956 493.112 777.262 493.055C777.568 492.997 777.86 492.88 778.12 492.71L826.12 461.35L820.15 452.27Z" fill="#333333"/>
<path d="M776.98 205.1L728.69 231.61C724.066 234.149 718.875 235.48 713.6 235.48H655.44V225.7L712.95 215.93C712.95 215.93 778.07 175.8 782.37 188.82C786.67 201.84 776.98 205.1 776.98 205.1Z" fill="#D72D35"/>
<path d="M828.85 304.94H748.7L760.7 249.6C760.7 219.48 754.7 183.71 784.83 183.71C814.95 183.71 811.7 204.29 811.7 234.4L828.85 304.94Z" fill="#D72D35"/>
<path d="M777.61 162.68H794.69V186.35C794.69 188.437 793.861 190.439 792.385 191.915C790.909 193.391 788.907 194.22 786.82 194.22H785.48C783.393 194.22 781.391 193.391 779.915 191.915C778.439 190.439 777.61 188.437 777.61 186.35V162.68Z" fill="#FDA57D"/>
<path d="M748.7 304.82L731.62 383.66L801.26 467.76L819.65 453.31L764.24 375.78L788.78 304.82H748.7Z" fill="#E0E0E0"/>
<path opacity="0.04" d="M748.7 304.82L731.62 383.66L801.26 467.76L819.65 453.31L764.24 375.78L788.78 304.82H748.7Z" fill="black"/>
<path d="M788.12 304.82L770.47 403.68L784.86 486.15H808.97L802.4 400.75L828.85 304.82H788.12Z" fill="#E0E0E0"/>
<path opacity="0.05" d="M817.13 257.19L763.96 295.19L768.3 302.79L830.46 271.26C834.055 269.439 836.87 266.378 838.385 262.643C839.9 258.908 840.011 254.751 838.7 250.94C831.29 229.44 817.13 257.19 817.13 257.19Z" fill="black"/>
<path opacity="0.05" d="M802.83 213.42L820.37 258.27L766.13 289.7L771.56 303.81L833.72 272.28C837.315 270.459 840.13 267.398 841.645 263.663C843.16 259.928 843.271 255.771 841.96 251.96C834.55 230.49 819.24 192.55 806.25 201.47C804.415 202.784 803.079 204.68 802.458 206.849C801.837 209.019 801.968 211.334 802.83 213.42Z" fill="black"/>
<path d="M801.75 211.25L819.3 256.11L766.13 291.92L769.37 301.7L832.61 270.17C836.205 268.349 839.02 265.288 840.535 261.553C842.05 257.818 842.161 253.661 840.85 249.85C833.44 228.38 818.13 190.44 805.14 199.36C803.324 200.675 802.002 202.562 801.387 204.718C800.772 206.875 800.9 209.175 801.75 211.25Z" fill="#D72D35"/>
<path d="M808.45 486.16H783.45L750.66 492.31C750.117 492.413 749.627 492.702 749.275 493.127C748.922 493.553 748.73 494.088 748.73 494.64C748.73 495.269 748.98 495.872 749.424 496.316C749.869 496.76 750.471 497.01 751.1 497.01H808.41L808.45 486.16Z" fill="#333333"/>
<path opacity="0.05" d="M804.11 213.78C804.11 213.78 817.11 231.14 814.96 244.16L804.11 213.78Z" fill="black"/>
<path opacity="0.05" d="M777.61 184.7C783.085 186.699 789.032 187.02 794.69 185.62V164.85H777.61V184.7Z" fill="black"/>
<path d="M787.66 184.28C803.787 184.28 816.86 171.207 816.86 155.08C816.86 138.953 803.787 125.88 787.66 125.88C771.533 125.88 758.46 138.953 758.46 155.08C758.46 171.207 771.533 184.28 787.66 184.28Z" fill="#FDA57D"/>
<path d="M655.44 225.7C655.44 225.7 627.23 230.04 628.31 234.38C629.39 238.72 655.44 235.47 655.44 235.47V225.7Z" fill="#FDA57D"/>
<path d="M766.85 292.12C766.85 292.12 741.6 305.44 744.05 309.19C746.5 312.94 770.05 301.35 770.05 301.35L766.85 292.12Z" fill="#FDA57D"/>
<path d="M766.13 219.21C766.13 219.21 744.26 223.99 760.62 249.59L766.13 219.21Z" fill="#D72D35"/>
<path opacity="0.05" d="M792.17 221.38C792.17 221.38 770.3 226.16 786.66 251.76L792.17 221.38Z" fill="black"/>
<path d="M793.26 221.38C793.26 221.38 771.39 226.16 787.75 251.76L793.26 221.38Z" fill="#D72D35"/>
<path d="M809.37 164.45C803.6 173.8 803.95 185.94 807.77 196.24C811.59 206.54 818.5 215.36 825.5 223.83C832.06 231.77 839.09 239.78 848.41 244.16C867.26 253.02 889.85 244.58 906.76 232.43C904.08 233.57 901.27 234.74 898.37 234.55C895.47 234.36 892.45 232.35 892.15 229.46C891.8 226 895.15 223.46 897.15 220.63C900.77 215.63 900.33 208.35 897.07 203.08C893.81 197.81 888.15 194.36 882.2 192.58C877.27 191.11 871.47 190.29 868.63 186C864.03 179 871.15 170.26 871.76 161.92C872.35 153.98 865.76 146.19 857.84 145.43C853.25 144.99 847.84 146.43 844.54 143.19C843.641 142.245 842.959 141.115 842.54 139.88C840.4 134.33 841.4 128.14 841.67 122.2C841.94 116.26 841.12 109.58 836.55 105.78C833.9 103.58 830.41 102.71 827.01 102.16C816.71 100.48 806.16 101.05 795.84 102.57C781.45 104.68 766.47 109.15 756.94 120.13C747.41 131.11 746.17 150.13 757.67 159.07C753.6 155.92 773.44 137.37 782.76 143.07C793.37 149.51 793.59 165.07 809.37 164.45Z" fill="#333333"/>
<defs>
<linearGradient id="paint0_linear" x1="209.98" y1="290.83" x2="209.98" y2="0" gradientUnits="userSpaceOnUse">
<stop stop-color="#808080" stop-opacity="0.25"/>
<stop offset="0.54" stop-color="#808080" stop-opacity="0.12"/>
<stop offset="1" stop-color="#808080" stop-opacity="0.1"/>
</linearGradient>
<linearGradient id="paint1_linear" x1="149854" y1="119100" x2="149854" y2="34517.7" gradientUnits="userSpaceOnUse">
<stop stop-color="#808080" stop-opacity="0.25"/>
<stop offset="0.54" stop-color="#808080" stop-opacity="0.12"/>
<stop offset="1" stop-color="#808080" stop-opacity="0.1"/>
</linearGradient>
<linearGradient id="paint2_linear" x1="211524" y1="153617" x2="211524" y2="69038.2" gradientUnits="userSpaceOnUse">
<stop stop-color="#808080" stop-opacity="0.25"/>
<stop offset="0.54" stop-color="#808080" stop-opacity="0.12"/>
<stop offset="1" stop-color="#808080" stop-opacity="0.1"/>
</linearGradient>
<linearGradient id="paint3_linear" x1="261904" y1="280565" x2="261904" y2="114817" gradientUnits="userSpaceOnUse">
<stop stop-color="#808080" stop-opacity="0.25"/>
<stop offset="0.54" stop-color="#808080" stop-opacity="0.12"/>
<stop offset="1" stop-color="#808080" stop-opacity="0.1"/>
</linearGradient>
</defs>
</svg>
