<svg width="120" height="120" viewBox="0 0 120 120" fill="none" xmlns="http://www.w3.org/2000/svg">
<circle cx="60" cy="60" r="60" fill="#F8F8FB" fill-opacity="0.6"/>
<g clip-path="url(#clip0)">
<path d="M39.8682 51.303C39.8682 52.5636 39.9909 53.5856 40.2056 54.3352C40.4509 55.0847 40.7575 55.9024 41.1868 56.7882C41.3402 57.0607 41.4015 57.3333 41.4015 57.5718C41.4015 57.9125 41.2175 58.2532 40.8189 58.5938L38.8869 60.0248C38.611 60.2292 38.335 60.3314 38.0897 60.3314C37.783 60.3314 37.4763 60.161 37.1697 59.8544C36.7404 59.3434 36.3724 58.7983 36.0657 58.2532C35.7591 57.674 35.4524 57.0267 35.1151 56.2431C32.7232 59.3774 29.718 60.9446 26.0995 60.9446C23.5236 60.9446 21.4691 60.127 19.9665 58.4916C18.4639 56.8563 17.6972 54.6759 17.6972 51.9503C17.6972 49.0544 18.6172 46.7036 20.4878 44.932C22.3584 43.1604 24.8422 42.2746 28.0008 42.2746C29.0434 42.2746 30.1167 42.3768 31.2513 42.5472C32.3859 42.7175 33.5512 42.9901 34.7778 43.2967V40.8096C34.7778 38.2203 34.2872 36.4147 33.3365 35.3585C32.3552 34.3024 30.6993 33.7913 28.3381 33.7913C27.2648 33.7913 26.1609 33.9276 25.0262 34.2342C23.8916 34.5408 22.7877 34.9156 21.7144 35.3926C21.2237 35.6311 20.8558 35.7673 20.6411 35.8355C20.4264 35.9036 20.2731 35.9377 20.1505 35.9377C19.7211 35.9377 19.5065 35.597 19.5065 34.8815V33.2121C19.5065 32.667 19.5678 32.2582 19.7211 32.0197C19.8745 31.7812 20.1505 31.5427 20.5798 31.3042C21.6531 30.691 22.941 30.18 24.4436 29.7711C25.9462 29.3282 27.5408 29.1238 29.2274 29.1238C32.8766 29.1238 35.5444 30.0437 37.2617 31.8834C38.9483 33.7232 39.8069 36.5169 39.8069 40.2645V51.303H39.8682ZM27.4181 56.4815C28.4301 56.4815 29.4727 56.2771 30.5767 55.8683C31.6806 55.4595 32.6619 54.7099 33.4899 53.6879C33.9805 53.0405 34.3485 52.3251 34.5325 51.5074C34.7165 50.6897 34.8391 49.7017 34.8391 48.5434V47.1125C33.9498 46.874 32.9992 46.6696 32.0179 46.5333C31.0366 46.397 30.086 46.3289 29.1354 46.3289C27.0808 46.3289 25.5782 46.7718 24.5663 47.6916C23.5543 48.6115 23.0637 49.9061 23.0637 51.6096C23.0637 53.2109 23.4316 54.4033 24.1983 55.221C24.9342 56.0727 26.0075 56.4815 27.4181 56.4815ZM52.0424 60.161C51.4904 60.161 51.1224 60.0588 50.8771 59.8204C50.6318 59.6159 50.4171 59.139 50.2331 58.4916L43.0268 32.156C42.8428 31.4746 42.7508 31.0317 42.7508 30.7932C42.7508 30.2481 42.9961 29.9415 43.4867 29.9415H46.4919C47.0746 29.9415 47.4732 30.0437 47.6879 30.2822C47.9332 30.4866 48.1172 30.9636 48.3012 31.6109L53.453 54.1648L58.2368 31.6109C58.3901 30.9295 58.5741 30.4866 58.8194 30.2822C59.0647 30.0777 59.494 29.9415 60.046 29.9415H62.4992C63.0819 29.9415 63.4805 30.0437 63.7258 30.2822C63.9712 30.4866 64.1858 30.9636 64.3085 31.6109L69.1536 54.4374L74.4587 31.6109C74.6427 30.9295 74.8573 30.4866 75.072 30.2822C75.3173 30.0777 75.716 29.9415 76.2679 29.9415H79.1198C79.6105 29.9415 79.8864 30.214 79.8864 30.7932C79.8864 30.9636 79.8558 31.1339 79.8251 31.3383C79.7944 31.5427 79.7331 31.8153 79.6105 32.1901L72.2201 58.5257C72.0361 59.2071 71.8215 59.65 71.5762 59.8544C71.3308 60.0588 70.9322 60.1951 70.4109 60.1951H67.7737C67.191 60.1951 66.7924 60.0929 66.547 59.8544C66.3017 59.6159 66.0871 59.173 65.9644 58.4916L61.2113 36.5169L56.4888 58.4576C56.3355 59.139 56.1515 59.5819 55.9062 59.8204C55.6609 60.0588 55.2315 60.161 54.6796 60.161H52.0424ZM91.4473 61.0809C89.8527 61.0809 88.2581 60.8765 86.7248 60.4677C85.1915 60.0588 83.9956 59.6159 83.1983 59.1049C82.7076 58.7983 82.3703 58.4576 82.2477 58.1509C82.125 57.8443 82.0637 57.5036 82.0637 57.197V55.4595C82.0637 54.744 82.309 54.4033 82.769 54.4033C82.953 54.4033 83.137 54.4374 83.321 54.5055C83.505 54.5737 83.7809 54.7099 84.0876 54.8462C85.1302 55.3573 86.2648 55.7661 87.4608 56.0386C88.6874 56.3112 89.8833 56.4475 91.1099 56.4475C93.0419 56.4475 94.5445 56.0727 95.5871 55.3232C96.6297 54.5737 97.1817 53.4834 97.1817 52.0866C97.1817 51.1326 96.9057 50.3491 96.3537 49.7017C95.8017 49.0544 94.7591 48.4752 93.2565 47.9301L88.81 46.397C86.5715 45.6134 84.9156 44.455 83.9036 42.9219C82.8916 41.4229 82.3703 39.7535 82.3703 37.9819C82.3703 36.5509 82.6463 35.2904 83.1983 34.2001C83.7503 33.1099 84.4862 32.156 85.4062 31.4065C86.3262 30.6229 87.3688 30.0437 88.5954 29.6348C89.822 29.226 91.1099 29.0557 92.4592 29.0557C93.1339 29.0557 93.8391 29.0897 94.5138 29.1919C95.2191 29.2941 95.8631 29.4304 96.507 29.5667C97.1203 29.7371 97.703 29.9074 98.255 30.1118C98.8069 30.3162 99.2362 30.5206 99.5429 30.7251C99.9722 30.9976 100.279 31.2702 100.463 31.5768C100.647 31.8494 100.739 32.2241 100.739 32.7011V34.3024C100.739 35.0178 100.494 35.3926 100.034 35.3926C99.7882 35.3926 99.3896 35.2563 98.8683 34.9837C97.1203 34.0979 95.1578 33.655 92.9805 33.655C91.2326 33.655 89.8527 33.9617 88.902 34.609C87.9514 35.2563 87.4608 36.2443 87.4608 37.6412C87.4608 38.5951 87.7674 39.4128 88.3807 40.0601C88.994 40.7074 90.1287 41.3547 91.7539 41.9339L96.1084 43.467C98.3163 44.2506 99.9109 45.3408 100.862 46.7377C101.812 48.1345 102.272 49.7358 102.272 51.5074C102.272 52.9724 101.996 54.3011 101.475 55.4595C100.923 56.6178 100.187 57.6399 99.2362 58.4576C98.2856 59.3093 97.151 59.9226 95.8324 60.3655C94.4525 60.8424 93.0112 61.0809 91.4473 61.0809Z" fill="black"/>
<path d="M97.2426 77.6388C87.1537 85.9177 72.4957 90.3127 59.8923 90.3127C42.2291 90.3127 26.3138 83.0559 14.293 70.9951C13.3424 70.0412 14.201 68.7465 15.3356 69.4961C28.3377 77.8772 44.3757 82.9536 60.9656 82.9536C72.1584 82.9536 84.4552 80.3643 95.7707 75.0495C97.4573 74.1977 98.8985 76.276 97.2426 77.6388Z" fill="black"/>
<path d="M101.444 72.3241C100.156 70.4843 92.9193 71.4383 89.6381 71.8812C88.6568 72.0174 88.5035 71.0635 89.3928 70.3481C95.1578 65.8509 104.633 67.1456 105.737 68.6446C106.841 70.1777 105.431 80.7051 100.034 85.7473C99.2056 86.5309 98.4083 86.1221 98.7763 85.1C100.003 81.7272 102.732 74.1297 101.444 72.3241Z" fill="black"/>
</g>
<defs>
<clipPath id="clip0">
<rect width="92.2105" height="61.2632" fill="white" transform="translate(13.8947 29.0527)"/>
</clipPath>
</defs>
</svg>
